<mxfile host="65bd71144e">
    <diagram id="48Q-FO-iC_s1-kz1g7CN" name="001. this">
        <mxGraphModel dx="858" dy="654" grid="1" gridSize="10" guides="1" tooltips="1" connect="1" arrows="1" fold="1" page="1" pageScale="1" pageWidth="827" pageHeight="1169" math="0" shadow="0">
            <root>
                <mxCell id="0"/>
                <mxCell id="1" parent="0"/>
                <mxCell id="2" value="" style="shape=image;verticalLabelPosition=bottom;labelBackgroundColor=#ffffff;verticalAlign=top;aspect=fixed;imageAspect=0;image=data:image/png,iVBORw0KGgoAAAANSUhEUgAAA1AAAAGQCAYAAACgbIGsAAAgAElEQVR4Aey9ebQVRZY+WtXd7/dW93q9+q311npdszLe+QKX4QKX+V7meZ7neZ4HEZAZURAERFEQZBIQUMEBRVEEFRQQAUEop3KoUqvU0iotf93VL976koo4O/Nk5skz3nPu/f7IFXkyI3bs2PFlnvhyR+z4SVZ2VcWDNiAGiAFigBggBogBYoAYIAaIAWIgMgZ+QiNFNhJtRBsRA8QAMUAMEAPEADFADBADxAAwQAJFDxw9kMQAMUAMEAPEADFADBADxAAxEBADJFABDcUvDvziQAwQA8QAMUAMEAPEADFADBADJFAkUPzaQAwQA8QAMUAMEAPEADFADBADATFAAhXQUPzawK8NxAAxQAwQA8QAMUAMEAPEADFAAkUCxa8NxAAxQAwQA8QAMUAMEAPEADEQEAMkUAENxa8N/NpADBADxAAxQAwQA8QAMUAMEAMkUCRQ/NpADBADxAAxQAwQA8QAMUAMEAMBMUACFdBQ/NrArw3EADFADBADxAAxQAwQA8QAMUACRQLFrw3EADFADBADxAAxQAwQA8QAMRAQAyRQAQ3Frw382kAMEAPEADFADBADxAAxQAwQAyRQJFD82kAMEAPEADFADBADxAAxQAwQAwExQAIV0FD82sCvDcQAMUAMEAPEADFADBADxAAxQAJFAsWvDcQAMUAMEAPEADFADBADxAAxEBADJFABDcWvDfzaQAwQA8QAMUAMEAPEADFADBADJFAkUPzaQAwQA8QAMUAMEAPEADFADBADATFAAhXQUPzawK8NxAAxQAwQA8QAMUAMEAPEADFAAkUCxa8N5YSB4vq3qIOb/l39/pV/Ud+e+yf1X5d/qv7n6k/U0N4/Z5+UU5/wT5F/isQAMUAMEAPEADEQCQMkUByoWYP1/gN6qSlTx1tHccOihA7ge/bqYmTXb1A7obIjATxd7zcv+Y36+5WfKnXtJ2HHmIE/o434XBIDxAAxQAwQA8QAMZCmGCCBStOOSfXA/+OP31M//viddYBIJbL+zz770MgeN25EQmUnUs9Uynr9wL/aiNMnL/+LOv3ov6qjW/4vVdr8N7QRn0tigBggBogBYoAYIAbSFAMkUAnsmKJ2bVXPXU9YR9n8JRkFehKo1Lqrvz77z4ZAHb7v3zMKK6kkmqwrtbikvWlvYoAYIAaIAWIgMgZIoBJIoNotX6vGXP/GOno9+nRGDYpJoCI/LIl8ocjpe326/DKjsJJIO1BWanFHe9PexAAxQAwQA8RA/BgggUoggepz6AVDoNosWplRg+JkEqgFC+eqXbu2WUfLVk0yyi7Jesn8f1dDa58aNbiFNkngc5isPqPc+P9waEPakBggBogBYqAiYIAEKoEDt+HnPjIEqrhX74waFCeTQFWEByXRbZAEqk7tWzMKK4m2BeXxz5QYIAaIAWKAGCAGMgkDcRGovKJC1XjIcNV+5TrVdslq1XT0eFWredPAg8G67durVrPmqw5336daL1yuGg0crCAzkgELGjVQhSUNVX79OiZvXt1aqvnEaarD3ZtUiykzFfJEkiPv1+vUSTUbN0m1W77GklE6Z4FqPGiIys7PcpWTU5ht6QA9cNRq1sSQJ0zjq92yue0+8uTWzneVJfWI97xW7Vw1ZuxwtW3b/Wr/gd1q3m0zVbPmjSLW60agWrRorNasWakOHtyr5syZpoJE0CsozFalZc1cD3qfQi9HEqiQLeLFPMvTlsQAMUAMEAPEADGQSgzERKBANEZe/MxGGPTaH6SDX76kSoaP8hy0I9jCsNdvuJd/9ytVdvtSz7IgIaaud79SIE4Dj58LXfvHGqQxkHPbHZ5yLCPnVFMtZ8xVI87/Lry8kNN1y54wOSCMRg+dN0La7+ipMDmJ6uyc3Orq2WNHTLQ7HVFPp59++oFqVepNbiWBmjtvhvrww+uusp577qhvG0aNHupaTusxeEg/3/KJske6yyGB4os+3TFK/YhRYoAYIAaIAWLAHQNRESh4XXrsfDwQcei19ynXgXKDnr3U6Kt/iigDniC3TmvYf4ApO+ryF/7k5/o3Cl4uNzm41nvfs0aWHxka+PybYTJ6HzgWqKyU23njw2FyvHSL5npR3QIFgqRJilf6/fffWN4pN9mSQP3ww599ZV299rZnO+D98qof1xnGvKoqKKhiIvBhHyhO4XN/ObnhlNdoK2KAGCAGiAFigBgobwwEJlDZudXV0Neu20gDiEW7FfcorPcp7tPXmoanvTluXiRMiYNnSJOK4W98YE2Za9Cjh2oyapzCb30P+fKL64UN1GWkO523/9OvquaTZ6imYyaEkaL2d94bJgNGbzX79lBd179RPXc/qUDOMBUP0/kwDRByUUfnTdvDZNTv1l01GTnGHPC6aX26bz9orss8hU0bh8lJBAAwxU6SlosX37Cm7k2cNEbt279L/e1v35r7X375qasOkkBpWfBoTZg42pJ17drbRgbur1i52FUONuFF0Ah5fP3156ZssglUWXaB+t81Z8R85GZXc21XIvpJyxje9+eGQMETpa8z5R8CMUAMEAPEADFADBAD6Y+BwASq7dK7DUEAUfAiJtl5Naw1RHXKSm0DQxCwUZf+YGQMffXdsDVBWNMkCRZIkRNEMtId9Gi79K6wPJCtyUzP3UfC7kPmkFPvmDxom7Me/btOWStVu1ULz/s63/A33jfyGvbtHzG/LhdvCu8TPEua9Lz00nNhdYME6ftIFy6aF5bHSaA2b14flufy5fNGzhdffBJ236stqdxIt112rZjJE4hXsglUbm5V9dGJ/8MQKOwH5WU3Xk//Fyj7iH1EDBADxAAxQAxUPgwEIlAIyCCJTZvFd0Y96EOwCE1qQKS8gkX0e/Jlk6/j2vvD6pGR7gY8eybsPkCMqXK6ru7b9rvmkdMI/ab5BXkoQBp1fUhzauW61hlEVrR51q2/y5AaeJqKi0OBNaSsGzeumHzvvXc1TD9JoL777k9h9yGrZ68uRgaIWP8BvVzzyXpxnkoC1Tw7Tx3L6h/TcSirt8pOYFRGtL1WrSpqy4r/W+1c8x/qpd3/pv564Z8MecL0vdlj/99ANnTalL8r38uafc4+JwaIAWKAGCAG0gMDgQgUNoXVBGHEW8E9D7KTJfFB1D55T55333bA1OX0HmENltYDaf0uXVzlYP2VzufmoUJ90hs26IXzqqBh+HRBqZffOfTQ9cVqHz/5fveOHD1kSI3f2qTlyxeZfJhS55QpCdQLLzwTdl/n/+qrPxg5kKmv+6WpJFB+epTHvQlD/tNGmECa/vvKT9XJPf+murT7VSD7lYferDM9XtDsB/YDMUAMEAPEADGQfhgIRKAk2Si7zX3ti1/nYn2UJhjwZCFynlf+vodfNHk7b9hmy4e1VloOdPKSIddqYd2VWz5Zj5bZ/6nTVih0P/3cZJXNX2L06vvEy671uZVLxLXz5183hOb48ac96x44sLfJhyARzrolgXpo6+aw+zr/jd++Y+Ts3hO+Nkznk2llJlDjBv8sjECBRP3X5Z+q7av/Q+XkpN9LQfYdz9k/xAAxQAwQA8QAMUAM2DEQkUDl1attyAGIhte+SH6Gbb1gmZHhFtFOlh1y8orJixDj8l6bO1aZe733H7PdM/lyqtmmG3pNFazVrETBW6TJkzNFAIkga59QLwJQ6PJea8OMfgmeIiaJz+7d3lH+Spo0MMQH0++cezpJOUuXLXS3bXZVdeHCGSPn5MnjnvlkeyszgdJ2yMuroob0/rm6+OT/aSNUj9z9H4FsqOUwtb/AaA/agxggBogBYoAYIAZSjYGIBMqKnPeP/Y2w91MsCnbbus8QjJ67nvCVMfLt0P5SiHQn65Nhx73WYWE9kyYzkCXLO8+xpxQCSHjtSYV1UojK5yzn/B3E4+Usk6jfkvj4eYSaNmtoiA8IVN169g2LpZxlPgRKerxOnPAgsQ6SmEoCVTe7ppqc1TTmI9FroNz6+Z2nQyTqh7d+GhFfbjJ4jX8WxAAxQAwQA8QAMUAMlA8GIhIoGTYca4Vi6aiBz71hSE2Hu+/zlIFw5pr8IHUGY5CR7jCdz00XGawCXiS3PG7XEAEQ66WcGwR7BaEwMhwer9yigsB1GhkOwhHN9XPnXjPEyG/t0qDBfU2+SFP4Hn74Ac82IAAFCBiOR3Zu9cwn25BKApXuUfhgl75df2G8UAxjXj4vPolPnrMPiAFigBggBogBYiAaDEQmUCvXGVIz8Pi5QANmpwIyrDim8znv698yRHmfg/bpYWGR7gqzXeXIIBRuUfx0XX6p1HfAMfdIf7p8Ubu2xj6RPF66TCLTI0cOGkJz/fplV5ugvtWrl5l8CATh1EF6oF56+fmw+zq/DCKxePF8z3w6P1ISKPtLCeuesA5KH9xI124fiR2e0zbEADFADBADxAAxkG4YiEigmo4eHzdBkKHJEWLczQiSiMD7hN8yny3S3fnf2e7JfHINFTaxlfeCnssw6Ag24VcOe1Vpr1mk9V1+cmK9t2bNSkOM4BVqXFLfVd8PPnjX5EMgCGd9kkD95S9fqZzc6mF5+vXvaWSgru49OoXlccrF71QSqKLsmmp8VklMx9Cs4kDtcWtjtNfgeSKB4h9CtLhhfmKGGCAGiAFigBgofwxEJFC1W7U0BAFEoey2O1wHmfnF9VSPRw6r5hOnht3vsmm7kQEvDbxJsvOxWe2oy1+YPG5eH1ukOx9SI/d3gk6yHpxjil/TsRNVVk61sHu4jzVPUpcWU2e55tNyZYAMywPlIVfnT3Raq3au+utfvzbE5uzZU2H6zp03w9wH8cFvpx6SQCHPrl32CIggVHIvqU8+eT9MhlOm/p1KAqXrTPeUBKr8X37pjhHqR4wQA8QAMUAMEAPpiYGIBAodB8+K9rIg7bHzcQXvDsKTg1B1337QRL5zCxtet2MHW3lMkWs2bpIqGTpCdd2yR41+50tzHwSoTllp2ODcFunOYx8pRM3TeoIEuYFuyKmrVh6sdeq0botqNmGKqtepk2o0YJDqtP4hJQkY8mTn1XSVo2WjDbpOpCB/mDqI9VQ4rLDvSSZVe/fusBEkEJ3Vdy1XS5YuUM8eO2K79/nnH7u2x0mgQKJOnz6hEFDi7jUr1Ycf3bDJmTNnmqscbReZkkCFP/z/IzxQzUp+E9iW0q48D7crbUKbEAPEADFADBADxECyMRCIQNVu0cwQJEkW3M69giiAdLnll9dAXkBk3BotI901GjjYNU+LKTNNHV7T6bAPlazT6xz7TKHdbrrIa4jk5xcOHfXJ/Mk4hxdKTtED+XE74KkaNnygqz6SQGEKn1t5fe2116Lb64oEKvxF9reLPzVT+BDePBm4oMxwu9MmtAkxQAwQA8QAMUAMxIuBQAQKlWDfJLmWyUk8Rpz/nWq3fI3nQDA7t7rqcPcmT/IC2YVNG3uWl54hL5IGj5LWq/Om8E1esYdVr71PKbkxsM6vU3jD2q1cp3IKczx1cRodtul6/66wCH6QCY+XM3+yfu8/sFv97W/fupIfRM/DXlBedUsCNnPWFHX16sUwOZDtFyrdSzYJVPiL6svX/tkQqLOP/atnv3jZlNfDbUqb0CbEADFADBADxAAxkAoMBCZQWpn84rrW1L2W0+eo0jkLrKl8blPudH5nio1tG/btr+AtwvS/kuGjVF7dWikfQGLdVcmI0VYbsC4KemC9F4ieU+dM+o21Sr16d1Vr165SDz64SY0bN0LVKcqPqU3YbHfhonnqoa2b1fARg1wDSwSxjYzch3DqQcpU9DyPb/53Q6AQTOLHSz9Vn73yL+rGc/9LdWn3K9oojtD+FR07bB8HB8QAMUAMEAPEQPliIGoCxQ4r3w7LNPvn5ddU2HdKT/9zbuCbae1JlL4FBVXUt+f+yUaidFS+MQN/RgJFAkUMEAPEADFADBADxECaYoAEKk07JlED9fKWs3PnVkOevv/+G74IHHhbMev/USf3/Ju6+sz/Up+f/hf19dl/Vn26/JJ2ctipvHHM+vnhiBggBogBYoAYIAY0BkigOFBL2GAdkfkQuQ8HAk3IwBTwQB09eihhdWkAM+XLjBggBogBYoAYIAaIAWIglRgggSKBShipOXPmFeNt0lP2dIp1UJy+x5dbKl9urIt4IwaIAWKAGCAGiIFkYIAEigQqYQQKXidNmJAiah+I04kTxxRCrScDwJTJFyMxQAwQA8QAMUAMEAPEQCoxQAJFAkViQwwQA8QAMUAMEAPEADFADBADATFAAhXQUKlktayLX1GIAWKAGCAGiAFigBggBoiB9MQACRQJFL82EAPEADFADBADxAAxQAwQA8RAQAyQQAU0FL8ApOcXAPYL+4UYIAaIAWKAGCAGiAFiIJUYIIEigeLXBmKAGCAGiAFigBggBogBYoAYCIgBEqiAhkolq2Vd/IpCDBADxAAxQAwQA8QAMUAMpCcGPAlUm7YtFQ7u3ZOeHccHiv1CDBADxAAxQAwQA8QAMUAMpB4DJFD0QNFdSwwQA8QAMUAMEAPEADFADBADATFAAhXQUGT3qWf3tDltTgwQA8QAMUAMEAPEADGQbhgggSKB4tcGYoAYIAaIAWKAGCAGiAFigBgIiAESqICGSjfmS334NYYYIAaIAWKAGCAGiAFigBhIPQZIoEig+LWBGCAGiAFigBggBogBYoAYIAYCYoAEKqChyO5Tz+5pc9qcGCAGiAFigBggBogBYiDdMFChCFTDRnXVqFFD1JSp480R1OA5udVVnz7dVL/+PVXHTm3IwEks0woDTZrkqVYtC62jQYNsm255+dXNPeTJL6huux/0GQiab9SIJmrc6GbWEbRMOueraO0BPnT/9OxePyYspBPe0hk71I2DOmKAGCAGKicGKgSBWrNmpfrLX75SP/74XdjRuUu7QAOIUaOHmrK///1Hgcpk+kNTWCtHzZ8/Sy1YONccRXULfNs+bfpEk7dVaVPfvJlun3TS/8bFqer3v51lHZfOTLTZfc6MMnMPeUaPiNwvRXWz1OrlndShvYPU2ZfHqrdenaBOPDNS7d85QE2d2NKXhH1246YeqCudbBSrLhWtPWtWdTZ4ePOVcTH1UaLxFmvfsFzlHJiw39nvxAAxkO4YyHgCBfLkRpz0tS5d2wcaQFQUAnXffevUmbOnrAMeNT8A9h/QK8x2Bx7b41kGHj5tV6SrVy/zzOtXL+9F/2KUA9rLZyfZ7D5/ThszYA5CoO5e2Vl98u5MWxlNznQKUrF3e39bPbrfKhrhqGjtSTSBihdvGjdMo3/uaTPajBggBoiB9MRAxhOo7777kxnUf/rpB2rz/feqxYvnmyOSR0UDs6IQqCtXLhh7RCI4bgTqr3/9WsEzpe0i08Yl9Y1sEqjUPtCJIlA7H+rrS5w0gUL6xkl370VFIxwVrT0kUKl9NuU7kue0PTFADBADlQMDGU2gihsWmQH9Dz/8WdWqnes68A8C5tKyZurJJx+zjiVLF8QsJ0hdycwTL4ECMdq+fYtr+0mgyu+lkAgCNXRwYxt5evfCFDVzWqkqLs6xpuz161OsVi3tqN55c7KVjwSq/Po7nncECVRm9ls8fc6y7HNigBggBlKLgYwmUCNGDjYE6vPPP3Yd9Fc2QCWCQMGrh6AaTtuRQKX24ZT2TwSBOvncKEOgrp6brBB8QtYhzxGEYNmiDq73K5rHpqK1hwSq/J5T+QzxnP1ADBADxEDFxUBGEai69QoVPEX6WL58kSFQn332obmu7zdr3sh1AKgBDY9VnaL8sMNrCpsuJ1OU1/VhjZC+16t3V7Vx0z3qiScOqIe2blYTJ40x93QeZzps+EC1+q7lCuuQcGzYsMaKJlhQaI+6Jsuhjbp+pDduXDE22b7jQds9nS8vv6ali9sUPr3GCXXLenAeDYHq26+HQv/s3LlVHTq8T61YuVh17eY+INf1gLRpHYuL6yi0DXrs2rVN9ezVxejTvkOZZVO0D23Q5f1S6D579lT16KOPWB62ceNGRO2xLGnSwNIJeuEAHv3qTOS9RBAoKWPuzLKYdXcjHAhKAW8WpgguWdBetW9XJ5B8kLgRQ0sssrbt/t5q2+ZeavrkVqp5s/xA5aWNUedts1urBzb0VLu39VP3rO6iZk8vVc6ohbIMztOlPbBFixYF1lFSkmfaD1ssv6OD2vFgH6s98p6zLfgdlEC1aH6zLtRZWKuGqQ8yJFa4BqriDgDc8MNr7G9igBggBiJjIKMI1P4Duw050AP9SGmbti1tAwMNChAar7LRROFbt/4uI+fSpXPW+iFJYmQdX331B4sgaB10OnfeDPXHP35m5MgyOP/b375Vp0+fcG3Hn//8pWc5pxz9G6HeUbeTQL300nNG1jfffBFWXyQChftnz57yjIio27Jt2/1hsqEPSKfWEevZ0G79G+m+fTvVho1rbddwHQRV29KZIgoj+lPKkee792z3LOuU9f3339jkfP3154HLOmVF+zsRA1pJFBC5L1oddH4pByHTEcVPrp3S5wf3DFTZOdVc6xnYv5E689JYG3nR5XT6u6szAkUU7NK5rnrj5XGuOmhZIAF1im5+ONDt0Gm6tGfQgEamDZhe2bqslnrv0jRzTbcF+i66ra2rXdGmIATq8N5BNrkLHfISgTdtX6aR/4hpI9qIGCAGiIHMwkCFJ1BeUfimT59oGwzLQXU8BOqNN057ykUdgwb3tQ18Zs6a4ptf64VpdW4PVywEClMfIctJoLB/lpQHD5KsMxKBgtdJ6xspffvtN5XTsyYJVKTyzvtu69/uXrMyjIQ5y+H39euXXacsyrbj3Emgvv32jzb7OPMn8nciBrQfX5thBs2nj4+OWXdJOF4/McbI1AN8mT78QG/Xeu6/t4dvOSkDHiUvW2L9FoiWzO913qZ1bVc56dIeSaA+uDxN4fBqC64PGdTYtT2RCNTTh4ba5MK75bRvIvDmlMnfmTU4YH+xv4gBYoAY8MZARhEoeBPknkXSI4XBrLynzzHFzg0AmCKGEOhr166yjueff8oM/mMlUNJj8tFHN9SRIwetKWhIv/jiE0u+k0Dp6xjIw0O1atUShXaC+M27baZ66qnDCpHxvAgUSI9uK1J4bjRJOHbsiO0e7kOmXt/kJFCTJ49VmzevN+W//PJTm+2CEijY4cKFMwoh1eHp696jkwJhffPNV41s6Lhly0abfCeBgqcKkQRlpEWUQ79jw2PpWULbZD/DftoOSCED+sD+sNnJk8dt9x98cJOtvJSlz8uTQGE/HxAFHKeet5OfKRNbmnu4D4+M1lmmF1+bYBs4g9zUru3ulZHlnOeScGAgj5Dom+7prsaOaqpWLumoJFHDeU5uuBdKEyjcf3zfYLV0UXsFr1SPbvXUvFmtFfa6kuShc6ci1zYdOTDY5Pv0xkwFud261lOlpYXWZrL4/d7bN/fQCkKgyrM9kkDptl+/MEWtWNzRsi2mN0rbv35irKtNvAgUvIEvPDXC2At13D7XfdPwRODNiRv+9v4jpm1oG2KAGCAGMgsDGUWgnODCpq56kPzxx++5DiacZbx+xxrGXE7h07q4rR9CvSBHWEejdZBRBFEW62r0PZlizRLaKq95nccTRAIECnXJTYnnzJlm6o1EoOo3qG2tV5JrwZx6Hjl6yPQZpi3K+5JAwROm74FIaduCTOrrcg8wRFDU15He+O07pgyIltt6JVkeURzRH1KG87w8CZRTl1h+TxrfwjZ4xgAaA/Lzp8crrD8aPNAdf8665CAepAVkReYBUdEEAOnwISW2+8iLiH/wfPgFssC0Oy3nqYM3p53KenB+5Y1Qnjvme2+aPWpEk0BT+MqzPU4ChWiIBYX2tUkgU9om6AenPfDbjUCBxL7y3Ghb2ZlTW7mWd5PJa5n1x87+Yn8RA8QAMZBcDJBAZd80cKII1MsnjwcelCAYgiYGSFu0cJ+SE81DEC+BQl0I2qD1gkdL1x+JQOl8fqncjBeeKplXEigQIH0PHiOtDzx7+vrgIf3MdazfcruOcrCzvudMP/nkfSNj6bKFnvlQLtMJFNqw75H+ZhCtB+Iy/fDKdCsAg9d6IciQBOrRHe6b7V58PeRB8iM2zv6QvxcvaGd0dQYy0Pnk9L1Y60mX9jgJFCIh6nbqFERI6usWIMNJoEBS4a3S/YzyE8Y0D5Ot62Ca3D9d2pf2JQaIAWIg8zFAApVgAtW0WcPAAxNMpdPEACmmuLl5SqJ50BJBoLCeSJKF8eNHWm2KlkChLZhqN3/+LIW9tfQhpzrKiIeSQL196ZyxI6ITaju9++4lcx1R/fR12E7bCdEP9XV4rFC/Pm6/fbbSB6b9Xbz4hsn7zLNPGhlalkwxnRCy9eFcIybzpvM5pvxJ744eWMsURKpXj/qu9pADeK91OHKq2JaN3muYtJ0aN85VIBCIDohIejhQTuuENTk6r0ylBwrT3RB4Qd4Pcp4u7ZEECjp56S7XRvXuGfJo6/ySQL316gTLw6jtCLmIeqjzMs38P3H2IfuQGCAGiIHUY4AEKoEESk47CwpmOdUMg36QC71+CuuV3IIj+MlOBIGC/MOP7zfE4v33r1kDriAECmvO4MFyrlvShMaZyul+kkBJQiSvI/iEbj9Cnmt5aLe+fvz40+a6vh8kRTAJLaMypO3a1rbWLp0+Psa2bkkPtj96Z7q1wa7TFpJweIXUPiSivHkFkkD47COPDVGYNqfr9ErfvxyaSir1eei+XmFlEcEOcuGR8tJPykiX9kgCBZIkdZTn185PMW1GGXkP55JAOe2JNWcIOe8sw9+p//OlzWlzYoAYIAYyFwMkUAkkUHJ6WdCHol37Uit4hNcAH4QqGs9UoggUgmxIT9HAgb0j7gMF75uM4ufVJnldrgmTROn110+aQZ4MCHH+/OvmOtaMaVlXr71trsNLpa9Hk0rvVtD+q0j5Rg5rYltThME3CIqzjZJwOO/p35JAYU8mfV2nqEvKcQ70nb+9CAWmtEUKYS72QcsAACAASURBVI6AFJ06eK9vk3po/ZxpKtojCRRIoFMH/VsSKNhRX9epH4GCXZ1BSHQ5ppn7R86+Y98RA8QAMZBaDJBAJZBAXb58PmwwEwTQCNyAvYw+/PC6jbTIwT8CLujoeX4yE0WgUIeMTHj16sWIBOq9967aiAuIH6bLIdqf3iAXKQI26LYlg0CBTGn50AEkNcgR7/RJv37JpHtXz002Hg6QE6fu8RIOBEZA5D5NknC+f+cANWFscyuCoN5MVga98CJQWjfsa4V9paRcLR8pdA4ShU/Lc6Z+BCpR7UkWgcJ0TISCl/a4c1mnsH51tpm/U/tnTHvT3sQAMUAMZA4GSKASSKCwkW684AdJwj5NiFaH9TuaCCDF2ptI8hNJoODhkV4o6CX1wZogrY/0BiEPiJO+J1NE6pMykkGgEL5d1xErqZU6V7bzVUtDkd6wkauz/fESKGwCqwfzIDxexGbB3DYmXyQCJXXs2KGONTVR7mWE+k4+NyqsLSiXLu1JBoHCNMwmTfKsdr/87ChjT7TZK9y9tCXPM+fPnH3FviIGiAFiIHUYIIFKMwIlwV9Ut0B9/vnN/aNACM6cPeU6AJRlJIHCHlfynvPcbR8oZ57Tp08YMnJNeHagjyRQCNKgSQv2s3LK0b/HjRth8iF/MggUwshrXaLZ00vr6JXu3v2wQrh0fdyzbrVnO71kZMJ17A2kCQ6i3Dl1jpdwPLEvtHcTNnV1yte/d23ta/SIhkDp8kjlprFeMtKlPckgUNjPSdsDa59AqHTfYn+s/ILq5r7Ol6wUQVceffQRczj3gUtWvZSbugEFbU1bEwPEQGXBAAlUGhMogHD3nu2GDARZoyMJz759O30HR0EIFKa+aTLiTCWBuuOO20w+P9Iip9cli0A524UQ9Yl4oGVkQuiOzZsTITdVMvzWAUkdsLGtHmS7hQ+Pl3AcfWyIkX9w90BXG2JanNyQ14v8SL3dzvv0amDqgrfLLU+6tCfZBAptR9RE3bdI/Qism63iuYa9+pzvEBmFMx7ZLMtBGzFADBADxEAqMUACVY4ECvsTHTq8z3f/J6yL0oOOIHtM4Quvzg/vld+6KSfRwEa6buC7cOGMkallI5UEqmOnNiYPpv0hxLhT1spVS0weLScZHijUK4nal19+qlqVNg3TR+uHaIcIZ65/e6WZTqCwNxOm5PntlzR2VFPbABteIKc94iUc96zuYupAdD2nFyQ7p5rNc4SBvheBwr5WXuHWofeOB/uYuq6/5R4KPV3akwoCBZs8ImwC22L9mLOPk/GbBIqDm2TgijKJK2KAGCgPDFRKAtW5Szt1333rbMdTTx02g3tEknPenzsvfCoTOmzd+rtMuWjXQDn3N9q+fYuaOWuKwsaxWAP1+ecfG9kgHKNGDYk40Bk+YpCtDKbTvfDCM2rv3h0KU9Bw6A17gxKoHj062WRq8iMJFGzxl798ZfKBbJx+9SU1e/ZUtWzZQiuSoC4n02QRKHjO5PotBK44evSQwma5mEaIfnvuuaOWFwn6IG+kB7AiECjtfUBggRPPjFTbNvdSWJN0/709wqLZIby42/qkeAlH1y51DanR5Gjv9v5q9IimCuuv3Pao8iJQOgQ6ItNtu7+3tY8UvCxoD6av6fYiBZly6+N0aU+qCBQIqtw/CzZE4A432yTyGgkUBzmJxBNlEU/EADFQnhiolAQKa4PkID7IOciBW0clikBF0uGll593rd9Np7feOuvbPk3EghIo1CE9OlpXJ4ECydT3vFIEdZBEJFkECjovXjzfVpeXTrhe2QiUJBZe5/NmtXbFXLyEA31zcM9AG7lx00GulYpEoNzKy2sgWJgW6Pa8pEt7UkWgYIPS0kLb/lsgrSBWbvZJ1LUvvgit59TPIiKQJko+5XAwRQwQA8QAMZAqDFQYAvXBB+8G/iNesXJxxIG+/oPXaRACJfcoCtKBLVs1UW9fOhcWbU/XiRTesA0b1wZum64XnixsgCtDhmu5IE7IJ/ddwj1NrLQMmQ4e0i/MZkuWLgjTC6TFbRNdEBQEwcCUQhldEPtN6XqkPidPHjfX27Rtaeo+c+YVcx2b8Oo2yQ12tTyk2JtKBtbQ+XUKvRB+HYEnZDm3c6k3ymfaGigM0J86OMQWSECSDH2OjXX91kvJUOFudsI1v7DfuI/9m7DBriQvun6sfVp/V1crSpy+hoAHbnWBZGEaoM7nTOFdeXRHf1WvnvfmsenSHkxF1PrDQ+TWXlyLtA8UQpRrOa+fcJ+WCzkLRTRE5N90T3fPOr10CXodAXH0M6fTaN+XQetiPg6giAFigBggBpKNgYwmUMk2Tirld+/RSSGS3eb771XbdzyoEJShb78evmuYUqlfNHVhYThCnoOUPLBlo+rXv2fSBmZB9QJxA0GD1wx6ISIYpjvWKcovd92CtiGR+TA1b8KY5mrlko5q9fJO1jS+gf0bqfr1s1NqjwYNstW40c0swrR0UXvVuqxWTPU3b5avsG8U2oPpe1jnBcJYpyi1Ho5EtSeRfZ0OshYsnBtGoLAGNB10ow4caBEDxAAxQAxEiwESqH8EkYjWcMzPh40YIAaIgWAYwBRk7XlCKj3JtGEwG9JOtBMxQAwQA+mDARIoEih+BSYGiAFiIKkYQCRMTaAwbba0rFlS6+MgI30GGewL9gUxQAxURAyQQHHgxIEMMUAMEANJwwDWOWryhFSub6yIf6psEweLxAAxQAxUfAyQQHHglLSBE18gFf8Fwj5mH0fCAPaI+/TTD6zjk0/eV82aN+I7h/87xAAxQAwQAxmNARIoAjijARxp8Mb7HOATA8QAMUAMEAPEADFADCQSAyRQJFAkUMQAMUAMEAPEADFADBADxAAxEBADJFABDZVI1kpZ/ApCDBADxAAxQAwQA8QAMUAMZCYGSKBIoPi1oZJjIKdhqSrepMxR2Hd5IEw4y0FGkLKxlsOfjFvZIH8+buXKQ9dU1xmkPmnXILZknsz8s2e/sd+IAWKAGEgcBkigKvngmQ9T4h6mdLRlXvPuvmQot2lnVX/VpzfJ0/ofDImKqhzIV8CytvqiKAfbepVNlq6o09gmQbqCZPrp69XGSOXC7BOwP5zl8JsHbUAMEAPEADFADPhjgASKAwYOmCowBoo3/LfKKxvg2sd5rfqqBmu+MaQpt0knVX/lJzd/R1GucNBaFaSss76g5fAS9y2bBF11ndozlzBdQcQ89PVto085rWsi+pJ/mP5/mLQP7UMMEAPEADEADJBAVeDBMx9yPuQYrBdv/LvKbz/aRqLy2w5XDdb/aMhTYb+l1v2c4laq/tLr1iA/mnLAml9Zr/oilcP9SGWjbWO0dWrbRFvOmtL4D7u6lcU1fURqYyx94tcfqNevTq0X01Af0Ra0BTFADBADxIDGAAmUGMRoozDlA1JRMJDfaaIhSRjQ15nwmO13fuepZhAv2xxrOcjwK+tVX6Ry0N2rrF99fuWC1CltIs8TVWfQ/giiazLsI9vMc74XiQFigBggBoiBmxj4iZch2rRtqXDUrVfoOsDyKsfrfLiIgfTCADwNIBLOw+mVcvZbrOUgx61spPq8ylkkyOFBS7au5VFnutrHaWv+Tq/nm/3B/iAGiAFiIPUYIIGiB4oEmRggBogBYoAYIAaIAWKAGCAGAmKABCqgocjuU8/uaXPanBggBogBYoAYIAaIAWIg3TBAAkUCxa8NxAAxQAwQA8QAMUAMEAPEADEQEAMkUAENlW7Ml/rwawwxQAwQA8QAMUAMEAPEADGQegyQQJFA8WsDMUAMEAPEADFADBADxAAxQAwExAAJVEBDkd2nnt3T5rQ5MUAMEAPEADFADBADxEC6YYAEigSKXxuIAWKAGCAGiAFigBggBogBYiAgBjKOQM2ePVWtWrXE9Sgta8aOD9jx6cbkK7I+rVoWKn3Url3ThtE6RTXNvRYtCmz3Em2TorpZatzoZtbRr09xUutKtO7pLq9JkzzTjw0aZNtsm5df3dwDDvILqtvup3vbqB+//BIDxAAxQAwQA3YMZByB+uqrP6gff/zO9Vi6bGGlGZi0bNVELVg41xwzZk72bXut2rkmL8rl5dsH8nww7A9GouxRUFhD/f63s8yxe1s/Wz8deWyIuYd8QeodOrix2ra5l3rhqRHq4usT1ZmXxqqnDw1Vm+7prtq0ru0pY9CARqaudy9M8cwXRAfmsePlxsWpxraXzky02XbOjDJzD308ekRT233a0m5L2oP2IAaIAWKAGEh3DGQcgfrii09cyRNIVSYTqGbNG6kzZ09Zx779uyIOsHbvfjjMDqNGDfEst3r1Mlv+ho3qeuZNd9Bmkn5OArV3e3+b3UF8JMHyaxvIEciSzO92/v7laap1WS1bPZCbrgQKhOL4keHWMX9OmzC9/Wwi7x3cPdCS8ezjwxS8PvJess8lgbp8dpKtbrRJ9hMJFAcGycYj5RNjxAAxQAwkFwMZR6DqFOWrkiYNzPHhh9cNMchkAtW1WwfTjq+//tw2AHN7CNwI1I3fvuNZbvVdy418kE0SqOQ+WLrPEkWgmjfLV5+8O9M2EJeDcud5754NwrCQrgTq3jXdTLuePzI8TG9ty0jpx9dmGDnFxTkxy4lUj9t9EqjUPE9utuc12p4YIAaIAWIg1RjIOALlNND165cNMajsBArEqG+/Hq4DRxKo8nm5JIpAYVqYJkmf3ZilDu4ZqDp1KFI5udUUyNWUiS3V4b2DFO4hHwkUCZTzXcnf5fMOoN1pd2KAGCAGKh4GSKDSJOhCIjxQIFCXLp0jgUqTPsULMxEECoEHNHlCijU1Xi/j+vWz1fYHeis3Dww9UMl7gdMDlTzbemGd12lzYoAYIAaIgfLCQKUmUPUb1FYzZ01RGzauVYcO71MPP/yAmjhpjML1aDqksFaOmjJ1vCXn8OP71e4929Xda1aqoUPt612kTExFRNRAfYwbN8J40r777k/mur6PtHFJfaOX2xQ+ECgcnbu0M/l0nUE9UAguAV3WrFmpsBZr376dat5tMxWCVmhZbimmBGpdc3Krq/HjR6oDj+1Rd9xxm0JbUaagMFshiuKhQ4+qJUsXBLZzu/al1vo29NGGDWtUv/49Fepw08PtGgJoYI2ZPNzyJeNaIgjUncs6GQJ1/a2pgdvtbI8XgYIHa/kdHdSOB/uo2dNLVUlJXlR1YL0V1vnsfKivgq69etRX2TnVPGUgSh0iDurj4Qd6m/adPj7GXNf3kSKCoGwP5Mv7OJdT+Lp1rRd2v0Vze5RDRMPTMmADKd/tXOZ3RtojgeKfuBtmeI24IAaIAWKgYmKgUhIohEH/9NMPDGHRxEOmn332oSpr3TzioOqRnVvVX//6tacs3Nu8eX2YnHXr7/IsI/WQ51jvpR9EJ4E6c+YVI+/s2VMmn84fiUANGz5QXbv2tvrb3741cmTdOAexA8HUMmWKsjq/nFaJa3/5y1eqTduWCmu7dB6k+I31bFKOPAfZQllZRp9///03FhmT+b3Ot+94MEwGgmp45U/k9UQQqL3b+xmCkUgCBeLz3qVpRrb2cmEa4KLb2ka0D6YNStKiyyPFei3cd7PliadHhtUpy7qdg9xJWSA8bvn8rqFdUgaCcsj8fhEMUW7r5l4m/7Xz9iiGJFAV8w9S4oXn7GNigBggBogBjYFKSaCcA3w9KHemGKRPn24PSawNh/TIkYNhA3OnDPx+++03bQM3lE00gWrfocymS6tSe6jkSARq586ttvJu7dDXdu3aFtYeSaB0viDpsWNHwmTBPidOHAukDzxksk/czt0IFLyObnkTfS0RBGrtqi5m4I4Bf8cOdWLSXXqgPrg8TeGQBMJ5PmRQY896ntw/2LesloVw606bxkKgMC1RykkEgYI8RMzTuu7fOcBWh6wP55JsPrChpy0vCRT/VJ144W9ighggBoiBiouBSk2gsKfUwYN7relkCL6AKXf33bdO/fnPX5rBOzwgbtPFiovrmDwgCoiAB7KF6WaQtWzZQvXGG6ctj44bgcJ0N7mPE7xUmnCgTnlPn3fv0ckM2pweKDykqEfLeOnl501e3AtKoOAxe+GFZ6wpiPBK9enTTS1ePF99/PF7RjbqkLpAviRQX375qRozdriCJ0zrg/Sbb75Qw0cMUuuF9w1h6Z0vGCe5hLcQ9oRdFy6apz744F2bXK/AGVpueROo312dofRx/732IB97Hu5n7l332JsJ+z7pQT5S7OE0oF/DMLvp9nqlkkBpeahzxeKOauyoptbeUjoIBe6/fmKsax0rl3S06QMScvvcNqpn9/rW+qwLr06w3cd1qRMCXGCqoD5kKPfzp8eb6/o+0saNc20yQEzlfZx/eiMUpfCO+e3C7g8fUmKTAZ0wdVHbAn0k9ZTn2HhY50PqXGP25ivjTD+een60TQ48cbr/kXbpzC0EpG15XnEHGOxb9i0xQAxUVAxUSgKFwTjWLHl1KqaVwfukB/8gEM68K1YuNvdBxNxIFspgbZDf/kxabrxBJCAHZEfrjKl4cs1UJAI1eEg/tXbtKt8NduW0x5Mnj9tsIgkUCJBul5ze+NDWzeY6yBR0hZ46L9KiugW2KZHOenRekFPdVpA7fd0tLU8C5aZPLNeuvBHylOiB/IdXplsb6C5e0C5sQO9Wh5NAvfPmZCvIhcwLMqXlO6e8IV+dopq2aXtPHXTfewyb/Go5zo1lZX04L88w5iBiknhNGt/CFUuS5L36gvs0Vme7+JsDB2KAGCAGiAFioGJioFISqCBglmuKMFXPWUZ6jILs2+Qs7/ydCAIFmXJ64lNPHTZ6RyJQTn3cfsvNeD/55H0jG3klgRo4MDTdSpIueKW03Pfeu2oIEAJX6Ot79+4w12FXeU/nQYpAHz/88GeT1y/wR0UgUAhZ/tE70w0p0eREpmdfHmt5kqSd5LmTQI0b3czYXedDWHTphXIGS3jovtA6IGzY67Vhbb16WTZigt+6DmdangQKukhydPq43XuE+2ij3INrsgfJcraLvyvmnyb7lf1KDBADxAAxUOkJFDxHCBYxYeJoayofosPhOH/+dTM4d/OCTJs+0dyHJwSEyssLFeRBSxSBGjFysNELBAMeHdQfLYGCFw7T7RBFT9tEThv84x8/sw2IJYHCeizd5vffv2b0gYdMX79y5YK5juh4+vrFi2+Y6x9+dEPNnz/LHLffPlvh0FMaoYP2QvmtVevZq4vauOke29Gla3tTp6473VNEonti32DbYF4SKH1+YJf7Wh5JoNy8S7r9cm2Ucz+pk8+NMiTu4msT1MyprULHtFI1c1poap5cFzRhrHdAlvImUIgaqG0HuzjJHiIM6vt+0/y0/Zjyj5UYIAaIAWKAGKjYGKi0BArrna6KyHF6IO6WwhvlfBCcU81QDtPVIBNEQ3pbnGXdfieKQEH2Rx/dMMQCochxLQiBwrosrJ2Snh03e+Ca0+smCZQkRPK6JFYXLpwxOqLt2iaff/6xue5Vt9t1BMHQMip6Co8IiAvI1NVzk83gXg/ykSLwhNMOkkCBJDnv69+IMKdloYy+jlTe03mCpM61X1JmeRMo6IJ1Zbod6+/qamsz1jfpe4iIKHXnecX+g2T/sn+JAWKAGCAG3DBQKQkUosi5DcK9rrmFBYcxsYeUH9kAoQoSJQ6yEkmgsL5LtwU6YP+lSAQK+zb5hTDX8nSKNUwSUJIoFTcsMvcuXz5vdJGRAd9881VzvYcIjiHXnum6gqQIJy/1qUznCLCw7f7etql3mHKGfYukHSSBAmGQ9+S5JEkjh9n3/5JT2TSpCJKmO4G6Z3Uo0qEMUQ7byvZhU2NpK57zj5UYIAaIAWKAGKh8GKh0BEpOccPAHAEgsIEupvB17NTGbAZ75OghM8D3IlB4YFq0aGyFM0c0Oa+B/qlTL0YcdCWSQEEv6cnZtu1+XwKFjYAlccH5M888YUUVBLnRG+TOmDnZtDFZBEoGnUBEREQ1DHJ4rZWqTC+1qRNb2gb7mJom258IAiX3fbp7ZWeFvaSCHF5rpaBfOnigEBxDrv3q2uVmpLwtG3sam7716gSbPaVteV75/jzZ5+xzYoAYIAYqLwYqHYF67bWXDQlAgAOvgffp0ydMPj8CJR+eWrVz1dx5M9Trr58M8+Z07tLOd/CVaAKFcN+a0GED3DVrVprfuI7ogFr3lauWmHsgT3Kqnc6DdPnyRSZfsgjU73//kaljy5aNRkepB8+9X1gy0IRzM9xEECg5ZXCdY6pbrP2SDgQKur8oIgdieiSuyXVcCwNsLhyrDVjOG9O0DW1DDBADxAAxkG4YyHgCJaeIbdiwJuKA+/PPQ56ipcsWeuaX64iCEijZufDcyOl9mEIn7zvPJYHCPlTO+87fMqADCJHzPn7Du6ZJlJxi5yRQL774rMnn5y07/Ph+ky9ZBEqujfLaZNetrX7XEAzjyScfsx3wavmVydR777091XhMli6yB8pIBIF6+dlQEImDuwcmxIaSQIHExGp76R1r0iQvajmDBzYytoOsPr0amN+YuujnRYtVZ79y+GDx6KOPmIMfFDiA8MML7xEfxAAxQAykDgMZT6Cee+6oGdQ/e+xIxEETNnnVpAJrmNzA1q9/T5MHeWMhUJCLzXV1XZHW6NStV2jygni56SWvBSFQdzu8TloXpNID9fLJ46ZuL9KCaX7Y4FfLSBaBkuvT4A3TUQRl26M9z/Qw5ogK17xZfkRM1K+fbZuG1qNbPVuZRBCoBzaEprSBVGDqW7T94cy/YG4oyh020nXeD/r7vUvTDOGJZaNh1CMJqDw/+pj7fldBdYsln3Pzajx7eA5jkcUyqftTpa1pa2KAGCAGKj4GMp5Abdi41gzqsX6mabOGvgOMS5fOmfwIZOAEOYiFnEaGQYsbgcJUPazRwbQ9pwz8xia2cj0PwoG75ZPXpMcK4brlPed5EAKFsOrwZmnSI1NJoB7YstHkQXQ9BJ2Q9UEOPFOyfLIIFOwpiRr6yGvQiLwIHy/3u5J66/NMJ1AjhpZYxODYE8NUaal7EAMEjJDR4hD4IDunmq0fE0GgCmvVsG2kC48RNqPVtpYp8q5Z1Vnte6S/632dt1+fYkN8sA4pFu8RZJ0/Nd7IeXL/zSl4uo6gKYJdyKAR+rxbVzsZDSovnnwkUBX/DzgefLAs8UEMEAPEQPlhIOMJVJ2ifBtRAWnBHk4Ix43jwGN7bIM3TIORRADroBBEYuKkMWr79i0K64XkfZy7ESiEB8c9kB6EOcc+Q4hkh7VHr7zygvr22z8aOcjjJCVuoJeby0L2W2+dVYcO77PCooMwLV4837QlCIFCHZIcyXZJAoV9kuQ9kCME0YBN1q+/S8nNcHW+ZBEo6Lxi5eIwfdDeOXOmKUQYfPDBTZbNNeHEQNPNnvpaRSFQejAPL83j+warO5d1UiuXdFT7dw6wkRrke3RHOGlJBIGCTbEWSOuCFCHREWwBQSywOS/CgD9/ZLjZSPfSmYm+/QOiJaP74Ryb2yKyIOTigO66P73SrZtDm/xCrwuvTrDIm5axcW1oHzIvGdg4WAaTgBy/iIVechJxnQSq/P4YE9F/lMH+IwaIAWKg4mIg4wkUwOkMkKAH+UhBZCSA4U1xephkfpwjnLcMs+1HoJxl3X77rbWSumGjWbfy+tqHH143bQlKoBAkQ3p0tCxJoKCDnAqp8zhTuVYqmQQK+jzxxAFfW0jdKjqBQihxSVginV95Y1KY9wk2TRSBgqzd2/oF1ikSgYI8eKr82rXjwT4G+8jvdsAL9+GV6Z5yQIzcyjmvnT4+2iZj0z3dA5Vzyon3t1tkT6+gN/HWxfLumKJdaBdigBggBogBNwxUCAKFho0aNUSBYMhpcxhkOwf6yFvSpIE6d+411wE68o8aPdTySulBultgBYQ9f//9a2HR9nQZpPDcTJ48NqrBFyLgwYOGqXTaw6Jl3rhxxchyelXcOldf271ne1hbseZK30cKYrn/wG7X9sCm8PogMIbWBQEqZHk5NVKuW4IXTZeB3XWZ06++ZK57Rf0bNLivkkE/tBydYo0UbAWvlJbrlj60dbOpS5fF1E+3vOl4DeuMEPEOYbT9SAYCH2AD3Zxc+9Q93SaENdflQbL0dWfqtw+UzIupd3IDWi1bp/AknXhmpOWVkuW8zkeNaKLgXUMkQacXCF4kr3LyOkjUXSs6qetvTQ2T8emNmYFkIHqhbgP0gFdK1pGKczxDGqs6BdZTUTfr4GCBGCAGiAFigBjwx0CFIVCxdHRZ6+YKa41ARpDKDWCDygPxGDq0v1qydIFFujBFcPbsqZ6hwIPKLa98sIGeJocgFOkQrQ5rnbB/FyIZYs3TgoVzVd9+PSzSV152Kq96QaYQIGHerNbW9D14biaPb6Hata3t6nVKhZ6YgocIdksWtLc8SbOnl6qe3euXmz7xtvn40RGGQMEbFa+8WMoD45o46dTrQ0Ms8lnG/4+R9qF9iAFigBggBvwwUKkJlJ9heI8PDjFQ+TDgXAOFNV3lgQOs39TECSnWWZaHHqyz8j0D7HP2OTFADBADkTFAAuWxnoLgiQwe2og2qkgYwNTHE0+PNN4nBMcor/bJ7RawJrO0rHyIXHm1n/Xy3UIMEAPEADGQzhgggSKBKrdBYjo/GNStcry4scfWkQOD1QtPjbBFAsQaKKylKg8cFBfXsXmfTp48Xi56lEfbWWfleO7Yz+xnYoAYyHQMkECRQHFwluEYyGlYqoo3KXMU9l0eqE+d5SAjSNlYy+Fl6VY2yEvUrVwidG3RvMB4nHTgCKQIox5rnUHa45enY6c2VgAaBKH55JP3VbPmkUO4+8njPQ5UiAFigBggBoiBxGKABCrDB898IBL7QKSbPfOa+4fQzm3aWdVf9elN8rT+B0OioioH8hWwrK2+KMrBrl5lk6Ur6jS28dBVEihE3Lt8dpJ6cGNPT11BMiPpm24Yoj4V+x3B/mX/EgPEADGQegyQ0AEFhgAAIABJREFUQJFABfJW8OFM/cMJmxdv+G+VVzbAtY/yWvVVDdZ8Y0hTbpNOqv7KT27+jqJc4aC1KkhZZ31By6EdvmWToKuuU3vmEqYriJiPvnxOyuc5od1pd2KAGCAGiIFUYoAEigTKdXCeShCyLu+XHgbrxRv/rvLb28Np57cdrhqs/9GQp8J+S61+zClupeovvW4N8qMphz7wK+tVX6RyuB+pbLRtjLZObZtoy1lTGv9hV7eyuMaDNiAGiAFigBggBiofBkigOAjiIDCNMWCRC3g9NilV0HmK1Vf5nSYa4mQN8nvcZuvD7LoNbxKoKMvhD8CrrPbkuNXnVy6SrigbSxuD1lnosE3QckHaqfsDMnnQBsQAMUAMEAPEQOXBAAkUBz8c/KUxBpwEpM6Ex2zkKb/zVNf+i7UcXv5+Zb3qi1QOhMSrrF99fuWC1On1Z5aoOr3k83rl+RNlX7OviQFigBiofBj4iVent2nbUuGoW6/QdYDmVY7XKx+I2OfJ7XNMgQORcB7OaX3Ofoi1HOS4lY1Un1c5iwQ5piAmW9dU1elsB38n91mgfWlfYoAYIAaIgXTAAAlUGnsf0gEg1CE9XlR5bYapgl63myO/3chAHzZiLYd+l2WD1ucsB52DlpX1RVOuvOqEjnw+0uP5YD+wH4gBYoAYIAZSiQESKBIoDgKJAWKAGCAGiAFigBggBogBYiAgBkigAhoqlayWdfErCjFADBADxAAxQAwQA8QAMZCeGCCBIoHi1wZigBggBogBYoAYIAaIAWKAGAiIARKogIbiF4D0/ALAfmG/EAPEADFADBADxAAxQAykEgMkUCRQ/NpADBADxAAxQAwQA8QAMUAMEAMBMUACFdBQqWS1rItfUYgBYoAYIAaIAWKAGCAGiIH0xAAJFAkUvzYQA8RAJcBArbxc9UDvTerBPpvVpLJxgfq8aZ2GVn6UGdS0X6AyqfqzR3vmtJuhDg7Zp06Mfl6dn3hWXZlyUbWu1yKt9EyVPVhPeg6y2C/sF2KgYmKgQhGoWvWqqbKeNVSHgaEjWcDNyauq+k7N8jyyc4MBpvOwmp4y6jWpxoFAJRjYaozm16+jGnTvrhr2H2CO7LwaxECMGKjbvr2xY1692pXejqu7rVA3pl21juHNBwWyR25OTfXWpDetMpcmX1CFeTmBymlMJyutV1BLQR/dHpm2b1CWFjomq+2UG+y/lXainYgBYiCZGKgQBGrAjCz1yG8L1d6Pw49Graon5c+0oE411/q0Dnm1ggF36+UCTzm9JtT01L1u42qq+5ia5ug0xH+gnVdY1eRFORDAZAKLsoPZN6dWruq4ZrMaffVPasz1b8KOwqaN2U8xEqjh5z4y9gQxrcyYLKndwJCNk2NejMoWU1tPNGVXdFkSVdlk2Xxt9zuNTiBP+wftUSCICzrMVQ0K66SFjslqO+UGe7fSTrQTMUAMJBMDGU+gQJ40aXFLG5Umh0Dl16rqW29QArXlQmwEauzK7LD64X3zAku/aXY7wVvnlZfXU/fSGXDsjBnkOwnU6He+rFR9VNSureq56wnrKJsf30A9Oz/LZtfsPO+PEZUB74/032YIR7RT8XJzaljT47SXp1GteuWOy2Mjjpr2zGs3s9z1qQwYYhtT979AW9PWxED6YyDjCdSO6yECsun1fDXs9izVc1xNc4DoJAuIhUXVVO0GoWP3hyEPWFAChXxSxvqT+YYY+Xmg3AjU2hfzPdtKApU8HMSKr7Lb7rAN8vs//aoCcWg6erx1NOzb37M/Y60zncu1W77W2KPXo0/H1fYGPXsZWcPf+CAuWelssyC6gfBo8oN1QkHKOPPAs6NlrOyyNCYZTpnx/JbT91oUlZS7PvG0hWXT793MPmGfEAPEQCQMZDSBKqwbmkYH8oJpapEanMz7uz6InkA59bn7eF7MBAoeuGYd3D1uJFDliw1nP+P3kJNXzCAfZMotT2W61ufQC8YebRatjMse+cV1Vdslq62jycgxccnK9D5Y3mWxIT+xTsGTJAzkJSfH/T2TKltdm3rZtKl2fl6l7t9U2Zz1pN9/CPuEfUIMlB8GMppAlfWoYcjG/W8WlPufaDoQqJVH3QcTJFDl95C5veAwwDdT9t79SmHKmVu+ynRNrlkq7tW70tsjEX2fnVPNBIGABykeb83RYY8b0jKixeBy7R9JoPJz+ewkAiuUkV7/EewP9gcxkN4YyCgChcANiEynj96TahoCdd/ZfHNd3y9q6L7OB+t/ate/eXgBFFH0dJ6gnq10IFDwQrkFzghKoBBcok2fGgpryybclW0dXUfUVAha4WUrXIdNtd1hu7Z9a6hJa7NVj7E1lZ7OmJNfVSHq4OR1OQrTE9GffjL1vQbNq1n5p6zPUYPnZanmHaurrJzgD1at2rmqWfNGtkPLTlWaW1SgCksamqPVrPmGQA078565rvO4RY2TMrJz3T0AuG5kFBW62heykaegUQNzH2uEGg8aojrcvUmVzlmoEMEuWtvkFRWqxkOGq/Yr11meH0xFrNW8qaucnMJsoyd0qdWsibEHiGXtls1t95Ent7b3FFW0RbdbpiCq0bYjK6eaFb0P0yk7rr1foa8a9OihIq2jQsREXXdunZCusEHZbYtVu5XrVNMxExTaHrVOMQbS6FzczpCe18a9Ele9s9tOM7J29H8oLlnxtp8EKvj7L15bszxtTQwQA8RAOAYyikBNvDs8cIJb4Ah5rUGz8EH6nt+Fptp5gWLqhhxDzqbeGyx0b3kSqDv25Rp9Fx/IDRvcRCJQrbrVUHcdy1PSNtKOOMd6s3b93ANVoKzOL6ch4hoiJKIftl0JrVfDdfzG+i+vPgDZ8oquCFvjvldZeX37jgfVjz9+ZztWr14WqKyUE8+5X7AI44kSUfjcAkhgjZTO22LqLFf9i/v0NXmGvX7DNQ8Im5YDYtDtoUfVmHe/Mtf0vZ67n3Qt77RDs3GT1MiLn4WV13IGv3xJlQwfZZOF6XX6ftC039FTNhlaD2fACKe8SMRHy0HafOJUNerSH1x1G/HWJxaxkvnlOQijrnvg82+qep06qRHnf2eu6XuQnyoP28KOtxnSs7XvA672k23wO+/QoLWRhdDmfnmTfY8EKvzPPNk2p3zanBggBoiBEAYqPIFyi8InSYIXGGY/lFkEqrhFdUNgQE6cHqNIBGrMiuDkdOyK8C/okkBpIhUknbXFnZzOezhECP3kwEvm1Yf6uhuB2rBxbcRyunwi0lGXvwgbSOsBtVs65NTVMP1Gvh0iKXU7dgi7Dz3bLL7T1IM1RU7d4aGS9Q187g3bb3kP5/CcOGXo3/Ck9Nj5uG95La/X3qdscnofOBaonC6PtPPGh20ytB4gIzKfPAex0/kipfA4ybJe5/W7dnWV2Wn9Q6b80FffdSWlWib6MhXTNh8f+pghPdPbTHbVO5Jd9H1E49OBJJA2qV0clzwtN9rUqQen8IX+0KO1JfPTdsQAMUAMxIaBjCJQmJom9z6SHil4R+Q9fa6nj0mAVEQChfatOBLyAt22w+6FCkqgdr5XqOZuy1X9Z2QpeKWatq9uRTTc8GooOiAITUlr+xQySaC2vFWg2vSuoeAJk+Tn4asFqrR7DTVoTiikOsK4y77B+aDZofsoj+iKvSfWtAJkoF/XvWzXxStwhpabDgSqZNgIhWAG+pAen9I5C8x1fR/eC60/Ukzf04NvlPWawtd7f4iYIKqdlIFzyDVy/uHxQpS60rmLVOPBw1TXB3bZBv7wpDhl4DfqH/radZss5G234h7LuwJPWOuFy40Hpux2e+S2+t2629oML5XWq/v2g7Z72iZee2IVNKxnyw/PmZbl5bVytqn9nfeaMig74Nkz1tQ9kCUE+JD7dLmRW8hDGV2vTuHdKxkxWrWafbsa/NLbtvuwgVOPRP/Wm+CC8GA6X7zysYeUJlFDmg2IW14s+rSp19LoAE9ULDJYJrYBA+1GuxEDxAAxcBMDGUWgnJ3WcXAoiAQG+M77Xr8rKoEC2dGEBW3EGi5tg0gEqmWX6mrAzCzfDXZBZLT8+TvtBE0SKBAgXS8ImS4z4o6QtwhkCtehp86LFGHnZRlnPTrv4sdC5CxS36cDgdJ6W22sXyc0kH73K4U1N/K+23mjgYNNGa+peSg3/I33Tb6G/cMHuM7Q6f2efDnME2KRqH+QK0xBc9On7dK7TT0gCyAgbvmwLgjrquqUlbre12VsescZvl0SqA533+dbL+ovatPa1pbu2x8LK1MydIQtj9saNdvUv3e/CpumhzVimlgh9ZqGqW2SiFSTHaRN6zQKa1e0dRwZdtiQlymtx8ctL9r6ERRjz8BHjA7YDypaGczPASAxQAwQA8RAvBgggfJYnJ1pU/g0EOT6oxn3habHRSJQurxfKmVsfM1OWCWBatEp5J2SpAteKS3/nhMhMobAFfr6+DtDUwmxRkre03mQIgCF3HfLLyBFuhEorAfSA2lM9ZLt8jqHZ0eXcU6H02VAVnQepG5BF+SUOwz44dnS5XVqI2tn3gu7j4AN0oOGaYO6bCypU++cWnZyHq1Ma/rcPwggPH+Ryvfe96yxW/9nXvPML6dhwsMm5eZLUnz9G+Xm/UN+GboeASWkjESf18rLNUQDBCoR4b53DdhuZC7qOD+p+sMeebk11YTS0Wpq6wkK+09JDxja1KNR56TrkOh+obzQ+562oC2IAWIgUzFAAlXBCJQM7Q6CoTcSluQHnh9EzfMDLYI7YLodoughYh4OuXnvgxftA29JoLAeS8u+56UQUYKHTF+/85nQdEMZLXH5E6Hr957KV91G1Qwdo2uqbqNrmqma0EF7t+CN1LKdac9eXdTGTffYji5do48y55Qb6++OazabATsITRA5co8kTI1zK1O/SxcjFwEP3PJIcoGocG55Wk6fY+QgcIUzDza51UTNqx5nGb/fQfT2K2+7l1PNRu5AbGz3Hc97YUkj0xa0yWt9E2RIL5nTewSipm2C6X5eUyxhL52vbofkYrC4sMiQHZANeG/8bBHk3oN9NhuZq7u64zCInKB5Oha3NfWhDTgwLXFV12WqpHYoimRQeczHwRoxQAwQA8RAIjBAAuUYUGmjZqoHCvqDeGhioYMsBCFQCEOOtVPSs6PlOFN4h7StkEoCJQmRvF7cPDSAW/Z4iCg1LgsRK+zn5awryG8EwZD6pPM51uXoQXTQDXTlHkmInOfWPhkEod+TJ8PzOMhF7RbNwvNkV1VdH9ht9Ou8aXtYHjlVzS/IhJuObtek3n2feDmsPrcyXteK2rYxukNPr3z6OsKU676I5A2U7YaXTstAiqmCWk6fg8dt93S+nMIckwd54XnT95KR5ubUtJGPegW14q7v0YE7jczbO8yNW16kdsvIf5pAIT0/8ayaXDZeZWeH3imRZPE+B03EADFADBADicIACVQFJFAdBobWhmE9EfZfikSgsG+TXBsWibRgDZMEoSRKhXVDg5pVT4eIkowMuORg6HpJmxCBkqHgI+kg749ZnjkESob8dgaLkDbV5wjDrQfn1sDbY9Nd+9qfTbb+gSxJLvyi0w168S1TX7Px9shtWPsTRBete5BU6u21liqIHORpOWOe0Q+h4yOVA2HT7fGtG+RThJmXe2ihDkmKsW+UW70yxDwCd7jlSfQ1Ge67VV33PbmiqfPp4U8aAjWxdExK2gD9cnKqq7J6LdR9ve419YNIlcc6rGjsxbwcrBEDxAAxUDExQAJVAQkUHlbpyRm5ONuXQOXmV1WSuOB85v05CtPiQG70BrmdhoSIWbIIlAwgMXR+lsImukEOr7VS6fbiwgarciDuNdVL6t2ge3dTxm/gLaPiIeiBlIFzuXlv/6dOh93X+bEHldaxVrMSWz5stqvv+ZEwLStIKvWG/CBlvPJ037bf6Nf53q0RZck9sZpPnuGZH3bQ7cb6L2f9khQXtWsbdh/55d5XCOPulJGM329OeM0Qjp6Nu8RdJzbj1Z6gAU16xy0vljZv6bPJ6PDqOBdPq8c7PZa6WKZiDnzYr+xXYoAYiBcDlZJASbLgZUAZ5S0TNtJ1tgPhvrWHBiHeB8ywhwaXa6D6Tgndg23kVDspt/ekkMxkEajNb4amHw5fmDleJWknv/NIARrcyiIEuB6893nseddBq9Mz5BYlrvu2A0YO1mG51SXXBGEtjzMPgiNoXQa9cD7svjN/xN+OaYVuQS0iyhADZhkOPUiQBhkMw29z2w53bTTtBuGTOjlDzHtFVZQh5tsuvcsmQ8pL5PmegTsM2Yh3yp0zKEUipgTG0tYWRSWmTQxjzkFQLBhiGeKGGCAG4sVApSRQ0sshp5VJY64/GRrIByVQj/w2FLIbXhspL+i5nPI2eF4oHLizvAzoAKLkvI/fWy+H1hPJKXbILwkU9n3SZOv2Xd4R0KasD20unCwCJddGeW2y69ZWv2vDRwxSTz75mO1o194/rLafvHjuBYmm55QvvSrtPQI/YJ8hTWy81v7ICHDYm8hZD343GzfJyBl04mJYHgSe0PUMPH4u7L6bTL9r8NZoedhc1i9vkHtyv6bCkoa+8uD903UjrVPWyj1/TjUlNzHGnllSF0mKneRK5pNBKJxR/GS+RJ7PbDPFkA2sX4pHdu/G3YwseKLikRVPWax70l4wpNxIlwOhePDEssQPMUAMxIKBSkmgZPQ2rBdyGg5reOR6oKAESnpPMN3NKTfI79kPhkjKrAdCYcidZYMQKGyGq4mRM5UEav4jIQLlRVowzU8SxGQRqLErQmHM4Q3TUQSd7Y/mdzqFMe97+EUzaG+9cEUgjMh1Ogi44Gx7TmG2klPIsKGrMw9+S3KRX1zXNU/njQ8b/bpu2ROWp+no8eZ+IggPps1pEuO1aa9bW9yu1Wre1MjCNES3PM5rMjS5MzCEzgvCpHVEfmfwB0kqsZ5Ll5NpWKj2Qu9nW5aL97y0bjNDNhC9Lh55SzstNLKwFikeWfGWlWu7SKA4+IkXTyxPDBEDxEC0GKiUBEruQYRw2k6jwQsjCUdQAiVDcMODlZ0bPSCHzAuRHnjK6hS7e7KCEKisnKpq+7WQF0q2SRKo4QtDdVp7L+U79M6pqpw2SRaByiu0EzUEmwB5c/YRfiMv1knJ/a7c8qUTgcLGtHow7hVNz9kGrFfSZZwkAwEmsJ5G30faaf1DYfaq3aqFyePloUK9CLygZbWYOttFTktzH/m8ogjmF9dTPR45rJpPnBomQ7av9YJlRp5FyOIItY26tO5BpxcOOfWOKQNyK3XDedOxE819yIYH0ZlHkmI3gov8CQ3VLqYsOnVx+31q7EuG+HRt2CFMf7cybtew3kh7fsp7/yUSKPd3olu/8RptRQwQA8RA4jFQKQkUpsZJMoFpc1jfM2h2llr7Ymjqns4TlEBh3yRdBimm0C3cm2uFBkd48L5TvafkaXDn1aqq5BRDnC89lGdkTFp7c11QIAKFvWsEOZK6SQLVpG11m94gR9M25qh2/WqoQXOylNwMV8tIFoGCHfpMDq21Qn2oC+3tMrymgsdwxKJsdce+ULj1Da/aN/XVttRpuhAoeIr0AB8pyI/W0S/tev8uWzl4pBAQot3yNQpBJaRMnMNL5JTXYspMk2/gc2+E3df5ZahuryltIHGyTuxl1WTkGIVpaSBU3bcfNHsxRQoKgWAXUhYIHEKLY40QDitMugupajx4mCqds8B2SKKJqXTO+0VtWoe1G15AWT/WKTUeMlw1nzhNyf2ukGfY6zcU+lDbSqeSFHvtI5XIUO263qDpDDGNb3PvDWH6B5HTpl5LQ57Kc/qe1vXKlItGn7oF7lOYdV6miR840Ka0KTFADFR2DFRKAoWIbXI6miYFOsU+SHLNUFACBTA5PTVaJlKs7wkCOGfABykDASEgIyiB8mqrJFCQJ6cOyvrkuVwrlUwCBX1gc1m333mmECgEKdCDdb9oek6MSO+FLi9Ti9C8+5WR7QyxDXm2vZ02PuyKQ0zrM3JdIs1pvbB/lAy+YMqIMN/6WqSgELm185XcXFaXM6mHHr5lXPSAvA6rN4a1G+ug3Eioqf8fsrAPl5tdg+7tlMhQ7bofgqYI/qA9NiAe2B8qaFmdb2331YawzGk3PeryWk6iUhkNEOHNEyWXcjgoJAaIAWKAGAiCgQpDoNa97O+FcBqjUavqtiALeoCOKW/wvMSyka6uA14brIdybkh7x37vAA26rE7LetZQmAYovVHQUROX0UtDa4VwXZdzS8etsudF/oI69qmBmG448e5s29ovbRPoAK8PQprraw9dsu8DtfJoaF8nuW5JTmus3SBU58I9oWmSxS1C+0BJ/Vt2qa4eOO8+BRF6YI0UvHNu69iknIe2blY//vid7diwca2vzWT5RJ2XzlloCIpXND2vuqyygiRhgI81TT12HLIG9nrAjzU6bjKwLkrnQaAItzwN+w8weTC1zS2Pvoaw3v2eDO2hpGXrFF4ZeMh0fr8UsuBlk+u4tJwhp66GyXCuJ9J5I6Vea5wQsbDPoRdM26Uc2LjrA7tcPU9oE/bx0vkRJMKrnYNfetvki+SV85IRz/W7uq00BAiBJaKRVSc/3xCwS5MvKBCyaMonI++RYYdNe+7pkZqIhsloB2VyoEYMEAPEQGZiIKMJVLygA2lo0am6tUcSNpr1isgXbz2ZVB4BNPQ0OQShwB5M5a0/1jqV9ahh9RPWPCFEe7MO1RXWeJW3bqmsP79+HVUyfJQ1TQ5eKa9w2SnVqbiuNXWv5fQ51pQ5TOWrU1Y+EQ7jbTei9sG+mB6JDXlBKJ0BI+Kto7zKg/ToaW8IJpGXG9wLtaLLEkNWpraekBbP3Lz2s4xOWJd1Zvxp9djgR9X2fg+pktoN0kLH8upr1lu5/hfY3+xvYqB8MFCpCRRBVz6go91pd2Ig9RiQa6Fmt50WiGQUFRQY7xOCSGS7rEcrj77MzamhTox+3kaidICL9g3KArWtPPRmnanHPW1OmxMDxEAyMEACFWVEq2R0AmXy4SYGiIFkYwDkZ2rriWp6m8lqQJPegUhG7fw8Kz/KIJBEsnWMVv6gpn3Vqq7L1EN9N6vHhz6mjo04qrDRbrRymJ/PHzFADBADxEA0GCCBIoHiYIMYIAaIAWKAGCAGiAFigBggBgJigAQqoKGiYaXMy68YxAAxQAwQA8QAMUAMEAPEQMXEAAkUCRS/NhADxAAxQAwQA8QAMUAMEAPEQEAMkEAFNBS/IFTMLwjsV/YrMUAMEAPEADFADBADxEA0GCCBIoHi1wZigBggBogBYoAYIAaIAWKAGAiIARKogIaKhpUyL79iEAPEADFADBADxAAxQAwQAxUTAyRQJFD82kAMEAPEADFADBADxAAxQAwQAwExQAIV0FD8glAxvyCwX9mvxAAxQAwQA8QAMUAMEAPRYIAEigSKXxuIAWKAGCAGiAFigBggBogBYiAgBkigAhoqGlbKvPyKQQwQA8QAMUAMEAPEADFADFRMDJBAkUDxawMxQAwQA8QAMUAMEAPEADFADATEAAlUQEPxC0LF/ILAfmW/EgPEADFADBADxAAxQAxEgwESKBIofm0gBogBYoAYIAaIAWKAGCAGiIGAGCCBCmioaFgp8/IrBjFADBADxAAxQAwQA8QAMVAxMUACRQLFrw3EADFADBADxAAxQAwQA8QAMRAQAyRQAQ3FLwgV8wsC+5X9SgwQA8QAMUAMEAPEADEQDQZIoEig+LWBGCAGiAFigBggBogBYoAYIAYCYoAEKqChomGlzFuxvmKsXt5J3bumm3W0LquVXi+XnOqqapfx6lcLTqhfrL6qfnbfn9TPHvpR3dp/UXrpyeeM/UEMJAwDNQsL1M8e+E79bPM36hd331C/XPSKumXMJlWzTlHC6kiX/7HqLbqqX89+Qv1i1WX18w1/UD/b8r361dynKlw708Xe1KNijV9S3Z/V2g60xiAYi/ziznfUrxa8qKr0u11l5daM+plN67FXdlVFAsU/9ahBneoHsrzre/rQUPX7386yjusXpqi8/Opx26xedpbqml1HFWdnxyXrl8svqP/crsKOW4feGZdcP5sPaV1FjWhz8/DLF8u9suKqqmvTKqpLkypJ0z8WveIt07BRXTVq1BA1Zep4cwSVWbdeoerXv6d1tGjRuELZJagNmM8+qKtZt0HYM2+9B7b9XdWo16jcMZKbXc16v7XMzo9Ll1tGrnNt5y8XvxqXXD884f2j32/1atnt7lcuyL3GRTffb6ijVn5iZQepP548s2dPVatWLXE9SsuaJa0/4tGZZVOPsSo9prs+sz9f+4HKyq4WFU6SMfZKJCZIoEigogJ0IsGXKbKyc6qp86fGGxL11MEhcdtsXFaJ+t81Z6hZWc1jllW14wjbi+oXd72rfjPpEXXL8LWqevPOMcuN1C//vfkW9T/33zwi5Y32fjJlR6tLIvKvWbNS/eUvX6kff/wu7OjcpV2gPjp06FFT9rnnjgYqkwjdy1NGy1ZN1IKFc80xY+Zk33bXqp1r8qJcXn70XzvLs73R1l2zIE/dMuxu9ZtxW9Svbj9uew/8evaTvraKtq5Y8uPDEN5v+7J6xqxLzdp1bO2Ct+3XUx9Vt4xcb3ndY9ErSJmry24177cJHRP7Ief68pDscR0SKztI2+LJ89VXfzDvIef7bOmyhTH3czw6lUdZvpv8SVn1ktbqluFr1G8mPqx+seIt2zNcpdesqHCSjLFXIjFDAlXBCNT4rBJ1X1Yn64j3618igZbpsuoU1VQ3Lk41JOq22a2jehE4258IAnXL2M3m5fTLO05Hrc/+ibeqF2bfqp6deavKzfV/KUr9k0lykilbtiEV5yBPzoGG/N2la/tAfSYJ1LFjRwKVSUX7oq0Dup85e0qdfvWliARn9+6Hw2wHD55XnatXL7Plh8fPK29FvF6lx1TzLsA0t/JuoyZQB7J6xaxLtTb9TZswbS8rLzpvfazvt1SPUwTVAAAgAElEQVQRqDHtM4tAffHFJ7ZnTL7LMplANWveyHov4d20b/+uiHjluyn4WAHvoV/PPGSe419PPxDRvs53V6LHXk758fwmgapgBGpnVnfryx++/g3Pahg1WOMBU0Uv26J5gfr42gyLRH16Y6Zq07p2zPbVBGpOVouYZWBusZ6+d2v/BVHL+WFTyJMUzVSVZJKcZMpONT6/++5PZsDx6acfqM3336sWL55vjqK6BYH6rKIQqL/+9Wtjj0gEx22QcuO373jaa/Vdy41sDOwiyU81FpJdX83CfPMu+M9tf/e0U7L10PITQaBuHbDYtOlX85+Puk2xvt9IoNwHyHWK8lVJkwbm+PDD6+aZy2QC1bVbB9OOr7/+PCLO+G5yx4d+9p1p1c5jzHP8yyWvR7Svszx+J3Ls5SY/1mskUCRQMQE6VsBlernePRuoz27cXA/17oUpKic3+JxeDCruyCpTz2cNUH+oOdEiul/XnKJOZw1Rj2b1VPOyWqq22YWB+wPrADSBQiCJaG0b6wAjmSRny8hb1SNjb1X3Ds2sr7NO2xc3LDJ/yj/88GeFKWbOPEF/jx8/Uj355GPWMXhIv5jlBK0vWfniJVAgRn379XBtf2UnUOgz/S5AGsuC7Xj7PT+7upqa1Uw9ltVLvV9zrPmQd77mcPV4Vh+1IquN6pldV2F9VJC6sI5Tt+nXU/cGKiPlxvp+SyaBWtCrivV+2zH2VtWgdnQDUdm2dDi/fv2yecdVdgLFd5M3lqu16mme41+seS/q51hjPZ6xl5aR6JQEigQqZkAnGoyZIq9b13pq5tRW1lFQWCOQ/TC1EmQJnsFIR1A72AhUx5GB9JCyYx1gJJNASf0y+XzEyMFmcPH55x9H3TeZ3HYv3RNBoC5dOudqSxKoqgqeJ004svKyXO3k1TfxXu+QXUtdrTk64rsN7z6QqCD1SQKFtZ1Bysg8sb7fkkmgpH6Zfk4CZV/XyneTO4nCemz9XoqHQOF5iWXslcznjAQqTgKFr24NsrOto3Z2aDDdIjtPYZrWwqxSNTmrqeqcHXm6V152dYU/oqlZTS1vRK/suqpOtv9i6LrZWaZ+6IFFu3qAPi2rme2e1jPH5QtgYXYNqy7U53ZfgxBtRB7k19ecaXZ2VVMvos3p+9AV0wrnZ7Wygif0y67v+jWyvmiTLov6+mbXUwuyWlkymmTH/kVfy0xV2i27yPQJ+gbep4s1R1jXTmUNVnuzeqgbNceYPEH1ioZAoU+a1bMfcoDRsaRK2P0mdd1fiG4Eqk5BVTW5UxX18Jhb1fyeVVTrhu5lnW3Ly61qRaNCRCrn4cwb6TfqnNm1itow7FaFL7x3DqiipnSuoqKZnhipDq/7iJSHSFT6WL58kSFQn332obmu72PevZesnNzqCtNl3I5ogiPAC6brgyxd38RJY9S2bferJ544oDZsWKN69e5q7uk8znTY8IEKJOXAY3usA+UQUbCg0H1dCtqg69apJFCoU1/XaavSpkYPt2kyes2FW/CNaAgUvFjon507t6pDh/epFSsXK0zjcbZZ/sZ0S60nvIk9enSyym/YuFbJyIiw0759Oy27lrUOFiCmXftShS/40AV2RcRF2E/WH+S8vAgU3vHS44R3HLzsSHF9a1ZXdabmUPN+SwaBSuT7zY1A5eZUVYNKq6gHRt6qVg2oonq1qKJQZ6R+wdpS53tN/w5SXsovz/eb1EOfx0Og6jeorWbOmqLw/AD3Dz/8gMJ7Cde1/CBpYa0c6z0EOYcf369279mu7l6zUg0d2t9TDt6F+llGOm7cCPOuxrRreU+fNy6pb+Ql692Edzt0wdpZrMXCe2TebTMVglb42QLTlbWeeG9gxgLe03fccZv1H4KyeE8jiiKmgy9ZuiCwnRPxbkokgfKzQ6R7xcV1FP539SH7NFJZr/skUAFegl7Gw/XRWY3NH8P2rG4WIZAkRpMZpPgTAYlxyivIrq62ZHU2cmQZnOMPCHmc5fBbD8SdZfx+t88O38voUFZvU3/v7HqudYEEarlHs/q65oFOIEA6H4gBrmHqmpsH5uOa48O+SMp8mO4BgqHlyXRlVptAf2JudkvlNUxf0Xqvz+pgEVS9BmqmiMIHgog1bEF1i4ZAgQzpyHlBUxAlN10kgQIBeuuOUGQpKfvApFsj9o/M7zx3q9vtWvvGVdVFDx20zA9W3ZLUsMH7D+w2f8J6oB8pbdO2pat9jxw56Ckrmih85869ZuQ8sGWjRRK8Imldvfa2qy5z581Qf/zjZ0aOs01/+9u36vTpE2Fl8afvzBvpN2Tp/nUOUs6cecXIO3v2lMmn80ciUPizRDmviIjQDfWDWGqZMt2+40FT/40bV8y5bhMGLRcunLFdhzy/wBcY0Hjp8/3331gDHqlDpPPyIlD4IKbfby9nDVK1smtY2zPgGqYma73LsgvUxqyOqnXAacrReKAS+X5zEqjtY25V8p2n3ynXlt0a8ePMeytD60x1OZ0GjcKXDu833YcyjYVAIQw61oPq58YtxQenIB8fHtm5VcmPMk5ZuLd583qDP637uvV3+dbvlIPfWO+lyyf63YSPLteuvW29f9zqxjUQOxBMrYNMUVaXk32Ca3i/4H8Ga7t0HqT4jfVsUo48T+S7KV0IlLSTtoXfh0xpD69zEqgEE6jNWZ3Mn4n+U5Fp62z7wnH8vlxzlG8ZlMc8cjfyFQuBahcjgYJHTLclGgI1MquRKafLy9QZSEESqF0iKIYso89vy3IfhHoBvjyuy/Zoz50bgYpWN2ycq13jVSNM4UvkAEMOJt5c6E6e9CABa5r82qXzuaV+5fQ9eJf+ssF7kCLltmoQ+YuxlhttGguB8orC98yzT9r+7PTLHmk0UfgkgQIB8CJPkIt1Ws424wuxrNvrHH/uzrKJJlDtO5TZdJHeKtQdiUDB6+Slv/P622+/GeZZkwTKmd/v9+9//1GYbaDviRPHAumDr9BO23r9xgba+n1Qo17qAgjJD0SDsm4OynQQCUmgvPT2uv6bcQ+a9kSawpfI95skUOcW+b/fkNdLf1z/6E7vd1OQKHzp8n5za6McrAddAyXL+D03+IAwffpET9v6fWSScvEsO3VPNIGK990ET7jU2e98165tYe1xIwZ+MvQ9r/+SRL+bqjdtb55jbK7r7I9U/XazUxCi7qcfCVQCCZQcKB/J6mt5XcZkNbZSfJnDoF8SKEyVAzHSZADlb89qpTpm11YgOdgjSMrckdUtDHzYjBVT4fRxLKu/kYdFu/q6TuFdcps6EMQDFQuBQtt0G96sOUzdmdXWmto4N6uFmW7oR6BQHl4qLE7ukl3H8vjJ6W4495ty6Af+VN3T/Yu05B9TD+MmUDk1rN2+9YCperNOYdiQ7cvPq2pNZ8OUNn38132hP/d5PULX9f2Bpe6BHCSBAkH5cdMt6p4hVdSwNlXU4j5V1PcbQ3JxjukvUhd5PrNbFbWwd+iQhEfm8zp/YmpogIP2IPgEpiO2qF/V2gwTv/+49qY+ySRQmFYm9y2ShOrbb/9ou6fzyWl1sn3de3RSa9euMsf7718zf7Bef3qyvD6XBAreEP3HiUHFo48+Yn2dfeGFZ6yvuG4ESoYtBvnC12O0E8QPU0ueeuqwVdaNQGFqjW6nTlGH1gGy9HWdjhk73ODE+ZUXbYLeuvxLL9ujsgUlULADPEX33bfO+qILW2Og9uabrxrZqGPLlo1GF9QtCRTaAXKJPpZ2xfnCRfPUhImjFQaAWlfntCTnAA5f5JctW2gFyED5Dz5415SFDK/AGbqfdfrzez8zA5Vq7Qbb9Nd5kpHK/5wJWSVWvYkgUL9c9IppT6SNwRP5fpMESr+PHp14qwLhmdalioI3W19H2tln029sOi7fb/JjTxAClS7vNzfcSDIULYHC++Tgwb3WdDLgG1Pu8Ez++c9fGuzDe+I2lRVTsfSzhRTROfEMY7oZZOFZeuON09az6UagMN1Nv3OQwkul5aFOeU+f4z2hbZDod5MmUPCY4X2MKYjwSvXp082K2Prxx+8Z/aCn1AU6SWLw5ZefKrxH4W3XbUL6zTdfqOEjBqn1wvuG97tuk06T8W5y7udWsyA0nVzXm4pU2knbhgQqTgIUb8fJKXx6oAzS5CZ3aFaxKhJrmkCQdBmsi3Fb19M0O9cQEOSNtJYq1jDmySRQ0HtdVgfX9U5Y8+WMPKcJF8rBLvgzlvZslJ1j7IY8kCHvp9s5iCP0xAECCf3iJVC3DlpmBhcgUbEsGpdroKJZJyQJFEgLyIq0OYiKHGB4ETFZRp9L2fqaX/qhGMyABHrlxUAGaw+87if6+rTpE80fGP4A45EfaxhzSaDwh4HBgduUMhA5rL2ROsoogijrNdUB8/bRVlnW61xOt4kUZtxtkIIBhf7jA1mRc9gjESiQGHy99av3yNFDRj6mLcp2SAIFu+p7V69eNGWuXLlgrmMAp3UFodL5sZZK2uHkyePmns6DVJYPih+5oe4vVr6dskh8mJan328vZQ2y2hMvgarerKPt/YY9oaR9gpzH+n5zEijnZrr4APnN+hCJwrrPIPogj9xINwiBStf3m9WWGKLwgdxg7aSXvTCtTH58wLYPzrxYs6ifLRAxN5KFMnjW3d53TnnxhjGHvHjeTYisig9mfutb5bRH5ztDEgMQIN0++Z55aOtmcx1kCvbDO1TnRZrMdxP2cdMfe+FZlvWm6lzaSeOHBCrNCNSarGCbYwI0OpQ1/nxGZHkvKsf6If0HBSLiB7h0JFAIlOCns/OeJFCLs8pcy8LDp20CYuqUkU6/78pqZ3SFzvAkPpzV1bom10D56Vy14yhVpc9cdcvIdUqufcJL6ZZhd8fU/lgHGJLk7BrnPni4sSI0wPAjNs42S9nOe26/5RfdaOpxk5XIa+lIoLCoOGgbndNSZKCEoDKc+eQfuh+RQTk3AoXr8qs3PGC6jkgESufzS6GT/mN1Di4kgcJCdS3nqCBdWAyvr8PDp2XhK7a+vnfvDnMd6xC8Bk0gfNJj5/RiaXkyrdG41BaJDxvq/mb8Q6pKv9tVld5zVI363v8xUk6055jdoN/FSF/MGmjNpMB50Cl81Vt0tXS8dcgq9etZh81gC++3Xy49Y+wXjW6xvt8kgYK3ya1OrIvSH4mem+X+DnQrFy2BStf3G9omn8WgHig3mzivyfWOmKrnvC89RniGnPej/Z0IAoU6pT0S/W6SG4V/8sn7tjZLYjBwYG9zT5Iu6d1/772r5h0k3z/JfDdV6TXT9kz/YsVb6pbRG1WVPvOs5z4rxzsoWbT96ZVf2km/m0mg0oxA1RUeJq+OxHX9hU7/8fTPrm9FmUMgAXngzwlT3HQ+RDfyk5uOBGpg9v/f3pmHS1Gd+T/LZJknmSWZzEwSV0Duxqa44AKoIKKoiAiCiAsEFEUWF5QQUESEYECN+45L3DVxiVvUqHHfjRq3JMaJJuOSZDSZmfjMbybn93zbnOq361Z1n6rbfbv73s8f/ZzqqlOnzvKpU+d7lvekL1ZMSosVUEkGL3SPXWumkbykcBrlnAxhWCtUvizlanqijIRo1FIWHdPibBeI+54c7erdb3RxkXbavWnn8zYwrMjZf1TyqM99xxUbGGcdEt7AsGGnxduetz20v/3OJm7n2GiY9dudx40moOIjKpXyQr26/iMjV1PcZGmw0n3lrldDQFnz8BIYfjPirAJKaZG1uyVLji1MI5JlKv0knHy6NQ3Rp8cKKG2I7M/LWpb3r0Xt/rx6fP159S77888//2R0/ldvvl54vuKg37e+tajw89OGrPGOcutBfNhyWzYf6jb5xhnOTufz9YU6Yazfah7b+tjWb6rLtS+UOoriMwns8yWSfDy9u+GyB1zffea51gSrsfbetOO89ZsVUBfPTq67lk3qEwmony5P9pMUr6wCqlHrN6XNCoY8Akp1jBqwGqH175/cZ555LHpH4qMteq6tW/WOSVCljUIllUH8XLUEVLXqJo3CabqdOrx8vtgOpXhdboWBOr58+uzUb42Q+fMaKfd1k51ZUOu6abMddnUbz7u8pJPHv+stA4t1rY9ntV2NfJ519mklv7Rp9KHPZg1UFwWYncIngw6hGa+1SPZDE3qsBne5ZzSigJL58nJxjl+zAipNkK5u3TXKv2YwJCErihqdLFfOWs81ra1oLtXmS5KA0rmNj7jYtQzON6c4bwPDipzttkieFnfDkUUBVcmQhE2nDdueTzs+d0bxOb5H+DenbuJuWbip04hUWvzSwqvWefuRD52ClfbsakzhkwBKCz/tvNYW+A+tXImLN9983alXWGugsm4OXA0BpbgqDj5eEjA6FyKg9LHUND6t2fL3l3PtKJkVUFYQ2fPW4pfMKvuw7fQZ7Qnmz2dxtU4irZzs+T6TjnVfO+vdTmJEDZVKhmZsOHmOj2wdXugQSqvjVK+rrk5asxofVfcNqw2X3uf6D8vXQZa3frMCSkIpKS9kQc/XN/Kf5CfpXFYB1aj1m9KWV0BpvZOsfobwr9GoeD7Gp5opHNUtClNCw462xO9N+l8tAaWw89ZNWpeldZ121Dktf+KjblZAWUFkz1thZa2FKu0+T2paNw1ocxvPuaBk3bZ/x+V2h4Dy6aymi4CqooDStLLQwjnarH9K++AknW82AaWPZmieeH9WQPlzcdcKKO21Fb/eqP81yiRLVXbNWbyc08zIK039txnu4uufNlx8Z670521ghIgcK6C0J1NoeYSEbcOSgYpKJsx/vmoTN3a7ZKFnw6rmcaMJKO2RkjV9WpRdznKfBFWWkalqCSj1JPrGhcLUHieVBNSIkduWLFD395dzrZlfK5RkAMPn5YUXnh3FRQu0/XmJLB+29rjx5+36Dn89xLWjWz6suNt3/OElwmnDJT9ym40Y121roRQfrQ/SOt11ZTqLtP1EPO7+f8sWQ13fvQ51Xz3/j1FaCpa7cmwMnLd+swIqvv7Jx9MKKNUv/nwlN6uAatT6TenMI6DUgRHCu/eTtGWBni0jLuXEhuqFUAuW1RRQeeombYFgR7592tNcrWGynFmhpLWr/tqLLz4T5bW1WmoN5mg/O++/lnXTRguujt5nCSaNkvffdqfco8s+zvV2EVBVFFBJVvLSClhW5XzDWdO7tm1rD/pZIxRJYTfaCJTfByoprmnnerKA8mn2RiQ0PVOCyVpjlEhOspTo75XbZ+JRJRWSLN3Y6yHHeRsYISKnuwSUT6csBz5zwqYFi4C+Z9i6ivPoGpox9/HwbqMJqLhVOR/PSq7myGsERfugpH3kNaUkZApNtQSU4mx7S7V3UyUBZef9q2GiRoSmzO0/bVK0CaV6gW2jrBYCyuaBrI5JpIb87FqFtDLbYOWzUZ2gEZ00f91x3k9R156I2v9J0/j8906utUabFJ/+24yI0qIGl8Rhkr9y5/LWb40koHz6Gq1+U7yyCig7xU3voDpn1LmgKXx77Llr9B5aYy5pAkrP17pMjYZba6Fx0fHQQ/dV5KaaAkrxylI3aZqwFS46vuOOmwtWBSVu/Aa5Rx8zLxJDtRJQtaub+pW8y1rn6LludhcBVUUBpY10Q4HQbuz+g5JHZKQ9J6+A0mJfHx+twUoK3+7nlGUfqKSwyp3rTQLKG5GQ2Xqf/3JHx/YL65xf/Zy1bKPN6jr7KT/qkreB0YgCyqZ91237Fsyqv/tX8+VeSD38zcojYWqoxn827NDjRhNQ2kg3NO5p/iSS1AhSA8d+bNVo0dzytPv8eXuPnR7nr1vXzvlX+PaajmXu2zeWNCVv7dpV0X+dt+FrWov3K1fCKR6e/stQg/VXCwGlfaH8M/KK2qS465wdtek3ZmpiGtPurfZ5L6C8EQmtA7VGk0LWrVqrgpscUhzdC41r3vqtEQWUTXNX6je9w/H6LaTzwz7fH2cVUI8++kDEvgwcpHUKaGNu/46UE1A+HnI1nVibfj/22IOdOnq09YL1Gz+utoDKUjetWn1SlFaJJzvVzsZz5coTIn+1ElC1qps0BddO12vtaClbHjbdjX6MgKqTgNKmuLbBPKCMAYEsEFkBJcETeq/dsDbNDLvmr/s4I6DKi5NK+e5HoLyAkn87ChVSdjJV7CumPOsbbANju6Hh6Wl0AWXz/vaji2ukZHrYXosfx3tI/Uc8j6WeniigbH5pHcI777wVfdQff+Khsnmre62AsnP1bbj+uJKAkj87vdBOY1G5WQElAw2+LHWPf0bcnTNnZuRP/mshoOz6gyx7esXjmvTfrpOUMYkkP911Li6g9NxzzCbzMjpRKS6y0uXrt0ob6SaFlbd+a3QBZdOapX7TfUmjyFqvZ8MMPbZTxOLbICSFYeuLckYn7DqiUAFln6eRGzuSrNFpez1+bAWU9qGKX4//r2bddN99d0Z1TrnRMk3B9nVYrQRUreomde7691iWQeP52V3/Z80+uLD/oSyk6ierg3YrjDzxQEDVSUCpsDRVywuSahlCOKN1XBSmNqsNhcLOWT8pxXS4LAD6+CKgwgXH1glGNJIElIyQ+PzVCGWlsrMLr/MIqPdPK5oan7RT8mLppDg0k4DaZ2Rxsbc2/E1Kjz+nuej+I2VdBFQy6zLn7fPp1VdfKJu3ymMreLSQ3Od7khvSSNGGk/75cdcKKFmz8tfVy5r0PJ2LL2yvhYCya0DU4+ytCKbFKct5K6Dy7AuX5VnWb1L9liSgzmvdK6rfyq2D8mFr81zf8MojoPLWb80koLLUb8rXagqou+++LXqv7rzr1tT3ypenNnn176HWMPnz1pVlTO9Hbh4BpfCsAZxK6wdlkdM/U8LLxifpuJp10wMP3hM9O61DRdP8tIefj2OtBFSt6iYroL6+tmt7IiaVR+i5W265IcpDn5dJ+4yFhid/CKg6Cii7DkrTG9JMdqugRrUNdNqwcOe28hbXrMlzbWpYaS2Nh8Xe93LL7E6b3soUuW/cy0VAJTcqfX5aV/ml9XF2Wp4VUCoju6mypjBqyosNI+m4qwLqpRXF0ZkfLKg8vc3HoZEE1FWHb+r2HpEu/mSG2E/h+/e1CChfhpVcTSXRvkbl9n/Suij/IVJDoFKYdh3Sj398V1n/IY0UTT1Sj7GPg3WtgNL6Cn9NDUj1OMfjaqfSeL+1EFCaamQbQ1qLZc2l23jJryz72T1l7PX4cb0ElPZ9UueattzwcYoLKBmWsN+P8W2V12x2VUDlrd8aSUBVs35T2VRTQFlLkxpdlqEWX/5J7gsvPB29h+I+7kfvrJ1GpvcwSUBpqp7WD6ZZAdWogh3tDtn/zo5YpU3x9fGtZt2kqdW+vpF1PRnE8c+RqzpOI1Pej9xaCaha1U0IqC6KDAtETzu2ZsyzrIFSPqjh/FjLwSUfFk1z0PStPdo2dwe2DnNLW0cVPk7+46MPUbk8HNs2uCQ8hf/t1rGFvaTUSNdvq4QRkR3aOkru0+a3SpvicFqCRSUEVDYB5cvvntZp7rut45yfMikDInYkUv4kZsuVsb+2wQk/iXpo+044Mugef6/c82YWxYVEhhoO+mBr3yb91h2YLEyqIaAGD+jrTtm/T6efFzty49dP3K+Pk1Uqm4b/OefjUbS31mzizv/Gpm7h+D5Oe1OdeXAf98JJpelL29PFh9cII1CKgxoH9mdHRiRC7DUdTz8w2frn008/Gn14s66BOmTGAdG9Gl1av/6CguUrWZnSGii7UFof9VmzDiopF5+n1rWby+qeN954tSAO1CDRT8YgvP+QRor82gaIbWRYASV/VrRo5OfhR+53ixYtcCefvKxgUMLe649rIaAUl1NWLY/yVs9Sg0jpPe64hU75K8t+Mt/sG3WhZvD9aI3c7lxnIAHl6zdNQ76wdbxb0zq2cO6XLYeVTE2Wv+tbJ0Xl7Ms7yd30wFOi+m2jo7Jbkcxbv1VLQB07oXP9ZkfFbpq/aac6bvvYVOpq1m/K42oKKG0LYIWKjrWHk8xx63f9DVeVlLPW/Pl3S67WQcmIxNwjDy3UL0nbCyQJKL/3mt4PvSdaf6l6U2uPfvKTe92HH74fPUd+4qIkiTXbuaO4PffcE4UOJF832ZGKatZN+04aH8XV1wWqX5UnsuppN8P1eVcrAaV8qUXd1G+XydF7zAgUYqqkUuiKgBKwO7UN6CSi/Mcoya0koBTmRa3jow9aUhhpI12+UZ90j87ZOewIqNKGfFKl7M/JSEhansbPyzy7v6+Su9HRN0QV06bTVwTf58Md0NHXfXBGcRqfFS86llDyfq1bDQGlNVfx54X81wJqGxffwKh0rwTWwAGl99pwdNwIAsqamPUfzEqu1iLE06L/1RJQlZ6vxlLS8+Pn1JBJGzHSM9S48/eENlK0EN2KIx/XuIBSr7W/luYqHyWu/PVaCSil8eabr4+e45+X5oYIKFnhLBFQ3fid1uh6vB5L+6/tGwa39Y/K2Zd3kttnn/lRmrSpbpKfcufy1m/VElDl6ta0+urUA0o7rapZvymvqimgFF7ceItlWELGlo9GU+IjTNa/jhU/WweWE1Dxe5P+l1trZeOmjWaT7vfnNNru/Ve7brJTIf3z4q5dK1VLAaU0VrtuUueur5u+fspzUT76/OwuV9+peL6q06orz2cKXxc/NFZAXdCa3RKaCk8bC57Yuouz1ufiHyD18i1u3dkNCfz4aA3Nja2TSywf+TDtVDILj/YoSvoYaoRkYetIN8lYDgwVUC+2zMoMqB2RsfGzx822D9S4tiHu1Nbd3O2tU52mSPqykKteW4nTMW2DM+XVJjNPK1ZMp77qWgeUDv/b/Eo7ViNj5dQ+TtPbrDDSB14f76T7tJbINwCSrutcJTPm1RJQ35+/qfv96cX4+Hh5V2m4cs6mbujg8uJJcdYoSryC1f+uroHSSEtaPsXPa2QkKQ7lzoUIKLtHUfyZSf93HjXc/fSFp0t6mONxkBjKugBdIko9xloPEW/MqbfYx8Xuu6Tn+vNJrl2L5eOodQ1xvwWHKWoAACAASURBVOpFTurlVjxkBEMNPNujPmxYcZqZHemyvdF2GtOaNSdHz7Q9uXaDXRsnjRzahfU+7t6VmFOPvkal7H1Jx5vMWBvVBV8749cV/SeF0ZVzw9s63JLWUYVvjuoz+y1TB5KMG2n/uyzP6Ddq3yhNmp7Yf6vyU8SSws5Tv9l95b4xtlTQ+GeE7ANlR5t8fVTJjQuoatZvinv8nRNrWd9hnwfeVb0pgWHfHYUbb+jLvzolbMeOZ93710J/jUr580mGFWT2/Je/fCUxLf4+jdzMm3dYJt40bVnvm6bS+dFfH97rr78UhVXtukn1znXXfy8xPcpTjUjLMIaPS9wQjp0aaddUahTN32M7g+w3Js3qX9Xqpvb+zi410H5QnpvuduPm7vX9Ut53JR4IqC4KqK5kftK9mjuuueSyhKepfBpxqrT3U1I4XTmn6XwHtw5zM1u3q7jmqivP6c33zm0dXhBRodP1kvJqsx33LDYw1rvCLt8bnPy02/Cbd7t+ux/cpYoh6XmNfG74ln3d7N36uOX7fTx9b/HEPm6/nfq4IQMrC6dGTlcjxG2fiXs6WbI797zvOjUetKZgytSJXf741CNtWm8ka4uyGiZRpEXr9YiHfabWHihOshYmsbV02fEV87dlYLvb8Pgfug1OfNh97bu/KakHNp5fOnXKPqu7jrdvay/Ub9r/Ke8zWwYNKNmqQb3Ysjwq8+aa3pc33Ga8r6fVb+qU0loj1Sdy7QawoeWjxq+M0Zy0YmlBdGmKoKblpomC0HDr5U954KfwykCO9oerV1z8c/PUTZuN3NNtuPhOt8HJT5ZsraD3t+9e2UStj0dX3fgWFRKWGj3targIqAYTUF0tUO5vjgbzEa07dFlAqaw3nn9lSePJD5VrATYsNAcLlBPllJWBli23SXzvv3bWu65lSPl1slmflcf/dn8VUKHrndKeYafx+bpNbr03Ck6LL+d5l3s7A30mHpVYN6njo155I5HtR+PkapSxGnFBQCGgqgJSNWDsTWF4ARWyoWSlfNlsxDi3yawz3UZHXV/okf76t3/m+k6YR7nybsNAD2VAa570nm+w8tlCb6/MfPfd61DXGmC9s1J9Uo3r1RJQiovEojqENLK24dL73NdXv+g2PvxC2O6hbFeDP8Kon5DtN3b6x3XTisfdRotuKbyrGpWqZ5nYzZkloGQ8qBrxQUBRCVUFpGrA2JvCOPyvI1DVEFC9Kd9Ia/0+jOQ9eR/KwLZ/HYG6trX+UyRD44w/+IaBnsmANV6i9bfVKmcEFAKqajBVC8reEI42n5ShD6156w3pJY0988NEuVKuSQxoHzvVb2kGi5Lu4RwswQAM1IIBrZfT+lf9umo4wsYPAYWAogEPAzAAAzAAAzAAAzAAAzAQyAACKjCjrOrkmF4SGIABGIABGIABGIABGOidDCCgEFD0NsAADMAADMAADMAADMAADAQygIAKzCh6GHpnDwPlTrnDAAzAAAzAAAzAAAxYBhBQCCh6G2AABmAABmAABmAABmAABgIZQEAFZpRVnRzTCwEDMAADMAADMAADMAADvZMBBBQCit4GGIABGIABGIABGIABGICBQAYQUIEZRQ9D7+xhoNwpdxiAARiAARiAARiAAcsAAgoBRW8DDMAADMAADMAADMAADMBAIAMIqMCMsqqTY3ohYAAGYAAGYAAGYAAGYKB3MoCAQkDR2wADMAADMAADMAADMAADMBDIAAIqMKPoYeidPQyUO+UOAzAAAzAAAzAAAzBgGUBAIaDobYABGIABGIABGIABGIABGAhkAAEVmFFWdXJMLwQMwAAMwAAMwAAMwAAM9E4GEFAIKHobYAAGYAAGYAAGYAAGYAAGAhloKgG1+cAB7rkjn3LPzH3C3TvrLnfd9Kvcyr1OdFsNGkKBBxY4PSW9s6eEcqfcYQAGYAAGYAAGYKA6DDSVgBo2eKh7feHLnX6vLHjRbTdkK0QUIgoGYAAGYAAGYAAGYAAGYKCmDDSVgBo8oN0tHXe8W733ye7KaetLhNRFU86taUah2Kuj2MlH8hEGYAAGYAAGYAAGYKCZGWgqARXP6Nk7z4hE1KNzfoKAorcBBmAABmAABmAABmAABmCgpgw0tYAaMqAjElCaxhcXWPyndwMGYAAGYAAGYAAGYAAGYKCaDDS1gFJG2DVRHe0tiCh6HGAABmAABmAABmAABmAABmrGQNMLKI08eRE1oAMBVU11TVj01sAADMAADMAADMAADMBAKQMIKNR5zdQ5L1vpy0Z+kB8wAAMwAAMwAAMw0PwMIKAQUAgoGIABGIABGIABGIABGICBQAaaXkC9NP/5aAofe0E1v6KnV4YyhAEYgAEYgAEYgAEYaGQGml5APTLnwUhATdlhIso5UDk3MpTEjUoTBmAABmAABmAABmCgURloegFlN9S9fcYtDkt8vGyN+rIRL9iEARiAARiAARiAgeZnoOkF1KgtRzhriU8b6q6ZcIpbMGaumzv6ULf95lszKsWoFAzAAAzAAAzAAAzAAAzAQFUYaHoBJRW/1aAhbvmeS52dzudNm08fMbUqGUVvQfP3FlCGlCEMwAAMwAAMwAAMwEBXGegRAuqI0bPd44c/HK2F8uJJ7vQRUxBQ9DbAAAzAAAzAAAzAAAzAAAxUhYGmF1AzdpxeIpyu2P9SN3brUayF4gWpygvS1R4K7qeXCwZgAAZgAAZgAAZ6FgNNL6BuPeT7kYC64cBraDQjnGAABmAABmAABmAABmAABmrGQNMLqOeOfCoSUPtuP75mGUXPQc/qOaA8KU8YgAEYgAEYgAEYgIE8DDS9gLIW+GRMImsmzJp9sLvmmsuj39VXX+a23wHLfVnzEf9UQDAAAzAAAzAAAzAAA72BgR4loAZ0tGQWULfccoP76KM/lvyWL1+SOZzeAAtppFKEARiAARiAARiAARjo7QwgoBBQiEXmCMMADMAADMAADMAADMBAIANNL6CsyfKOdkagenuPAOmnVwwGYAAGYAAGYAAGYKCWDDS1gNpy0ODIgISEVJ6Muv/+u0um72k633HHLcwVVp7ncw8vOAzAAAzAAAzAAAzAAAw0DwNNLaCWjVscCaiHDrs/l+h55523SgTUBx+859o7NssVFuA3D/iUFWUFAzAAAzAAAzAAAzCQh4GmElCDOtrcpVMvcNcfeLV7ZM6DkXjS6NN3912XWfRsudXgEvGk0ad161ZnDidPxnMPLywMwAAMwAAMwAAMwAAMNB8DTSWghg0eWiKa/Pqnxw9/2A0dNCiz8Fl2wuISAfWHP7yTOQygbz7oKTPKDAZgAAZgAAZgAAZgIC8DTSWgtObprpm3uVsP+b67bP+L3Lp91riDRk5zbW39cgmfBx68p0RArVx5Qq5w8mY+9/HiwgAMwAAMwAAMwAAMwEBzMdBUAqracL3//m8iAaXjaodPeM31MlBelBcMwAAMwAAMwAAMwEAlBnq1gHrttRfd22+/UfgtWrQAARVo+74SVFyn4oEBGIABGIABGIABGOipDPRqAdVTC5V0UWHBAAzAAAzAAAzAAAzAQG0YQEAx6sLIGwzAAAzAAAzAAAzAAAzAQCADCKjAjELB10bBk6/kKwzAAAzAAAzAAAzAQDMxgIBCQNHbAAMwAAMwAAMwAAMwAAMwEMgAAiowo5pJFRNXenFgAAZgAAZgAAZgAAZgoDYMIKAQUPQ2wAAMwAAMwAAMwAAMwAAMBDKAgArMKBR8bRQ8+Uq+wgAMwAAMwAAMwAAMNBMDqQKqmRJBXHnpYAAGYAAGYAAGYAAGYAAGuoMBBBQjUAzXwgAMwAAMwAAMwAAMwAAMBDKAgArMqO5QszyDXhMYgAEYgAEYgAEYgAEYaGwGEFAIKHobYAAGYAAGYAAGYAAGYAAGAhlAQAVmFD0Bjd0TQPlQPjAAAzAAAzAAAzAAA93BAAIKAUVvAwzAAAzAAAzAAAzAAAzAQCADQQLqnsu+4P73pU+6Pz//Sff+Y592r931Wbd84VfI5MBM7g4lzDPocYEBGIABGIABGIABGICB2jMQJKB+dvvnnHvlE51+T9zwt4goRBQMwAAMwAAMwAAMwAAMwECvYSBIQJ244Cvuzku+4J666fOFUSgrpibusUGvySwUfe0VPXlMHsMADMAADMAADMAADDQyA0ECyiagvb1viYg684QvIaDocYABGIABGIABGIABGIABGOgVDGQWUBJTGonyo1C3nP/FXpFRVkRyTK8IDMAADMAADMAADMAADPROBnIJKE3n8wLq0etYB8XL0ztfHsqdcocBGIABGIABGICB3sdALgF16wVfjATUY9cjoHhxet+LQ5lT5jAAAzAAAzAAAzDQOxmoi4AasnmHG7njdiU/AOydAFLulDsMwAAMwAAMwAAMwEAzMVAXAbX+sgvdRx/9seS3Zs3JrKVi4SEMwAAMwAAMwAAMwAAMwEBDM5BLQN109t9FU/i0R1RWxZgkoM48a13mcLI+F//0bsAADMAADMAADMAADMAADHSFgVwC6vSlX44E1AdPfSqz8EFAAW1XoOVe+IEBGIABGIABGIABGKgXA7kE1LR9vh4JKFnjWzb/K5lEFAIK4OsFPM+FPRiAARiAARiAARiAga4wkEtA6YEv3Pa5EhH1+t2fdbLOd8nqf3CrFv1TWUGFgALarkDLvfADAzAAAzAAAzAAAzBQLwZyCyhFeMVRX3Gv3fXZEiGlEak/PVN+Wt++k8a7s84+reQ3fu/dy4quemUQz+XlhAEYgAEYgAEYgAEYgAEY8AzkFlB7jNnQ/eKez7i/vPyJTgLqw6fLCyj/cFxAhAEYgAEYgAEYgAEYgAEYaCYGcgmojo6+7j+f/VQknP7v5U+4c076khuz80aMImF2EgZgAAZgAAZgAAZgAAZgoMcykEtAHTXrXyLxpCl7hx3w1R6bQc2khokrvTcwAAMwAAMwAAMwAAMwUFsGcgmoK9b+QySgfvf4pxFP9DDAAAzAAAzAAAzAAAzAAAz0CgZyCShZ29PIk37P35J9I93Ru4x011xzeclv+oFTekWG0yNQ2x4B8pf8hQEYgAEYgAEYgAEYqCUDXRZQj13/t5mFzxFzZ7uPPvpjye/BB+/JHE4tM4awefFgAAZgAAZgAAZgAAZgAAbiDCCgGGpFuMIADMAADMAADMAADMAADAQykEtA/Wj9F6IpfI9exwhUXJXyn54KGIABGIABGIABGIABGOiZDOQSUFr35NdA3X3pFzKr1WUnLC6ZvqfpfD/60Q8zhwOUPRNKypVyhQEYgAEYgAEYgAEYaFQGMguo4dtt4v73pU9GAmrtki9nFj733393JwG11/jdMofTqJlKvHjhYQAGYAAGYAAGYAAGYKBnMhAkoLRJ7i/v/Yx7/7FPu7+8/LH1PT8CNXZU9s1z33vv7RIB9eSTDyOeAudc8iL2zBeRcqVcYQAGYAAGYAAGYKA5GAgSUD+7vThlzwsnuTec9XeZhc+wbYeWiCdN39t17M6ZwwGw5gCMcqKcYAAGYAAGYAAGYAAGehIDQQLqlvO/6LRh7lsP/I376a2fc3dc/AW3++jsI0/KuJUrTygRUA89dB/iidEnGIABGIABGIABGIABGICBpmAgSEBVUzHeddetkYD6858/dDuPGt4UGVXNPCAsemFgAAZgAAZgAAZgAAZgoDkZ6HYB1d6xmRs8pL3wGzS4DfFETwMMwAAMwAAMwAAMwAAMwEDTMNDtAgql3ZxKm3Kj3GAABmAABmAABmAABmCgr0NAofabRu3zwlJpwwAMwAAMwAAMwAAM1JsBBBQCCgEFAzAAAzAAAzAAAzAAAzAQyAACKjCj6q10eT69LTAAAzAAAzAAAzAAAzBQfwYQUAgoehtgAAZgAAZgAAZgAAZgAAYCGUBABWYUar/+ap8yoAxgAAZgAAZgAAZgAAbqzQACCgFFbwMMwAAMwAAMwAAMwAAMwEAgAwiowIyqt9Ll+fS2wAAMwAAMwAAMwAAMwED9GUBAIaDobYABGIABGIABGIABGIABGAhkAAEVmFGo/fqrfcqAMoABGIABGIABGIABGKg3AwgoBBS9DTAAAzAAAzAAAzAAAzAAA4EMIKACM6reSpfn09sCAzAAAzAAAzAAAzAAA/VnAAGFgKK3AQZgAAZgAAZgAAZgAAZgIJABBFRgRqH266/2KQPKAAZgAAZgAAZgAAZgoN4MIKAQUPQ2wAAMwAAMwAAMwAAMwAAMBDKAgArMqHorXZ5PbwsMwAAMwAAMwAAMwAAM1J8BBBQCit4GGIABGIABGIABGIABGICBQAYQUIEZhdqvv9qnDCgDGIABGIABGIABGICBejOAgEJA0dsAAzAAAzAAAzAAAzAAAzAQyAACKjCj6q10eT69LTAAAzAAAzAAAzAAAzBQfwYQUAgoehtgAAZgAAZgAAZgAAZgAAYCGUBABWYUar/+ap8yoAxgAAZgAAZgAAZgAAbqzQACCgFFbwMMwAAMwAAMwAAMwAAMwEAgAwiowIyqt9Ll+fS2wAAMwAAMwAAMwAAMwED9GUBAIaDobYABGIABGIABGIABGIABGAhkAAEVmFGo/fqrfcqAMoABGIABGIABGIABGKg3AwgoBBS9DTAAAzAAAzAAAzAAAzAAA4EMIKACM6reSpfn09sCAzAAAzAAAzAAAzAAA/VnAAGFgKK3AQZgAAZgAAZgAAZgAAZgIJABBFRgRqH266/2KQPKAAZgAAZgAAZgAAZgoN4MIKAQUPQ2wAAMwAAMwAAMwAAMwAAMBDKAgArMqHorXZ5PbwsMwAAMwAAMwAAMwAAM1J8BBBQCit4GGIABGIABGIABGIABGICBQAYQUIEZhdqvv9qnDCgDGIABGIABGIABGICBejOAgEJA0dsAAzAAAzAAAzAAAzAAAzAQyAACKjCj6q10eT69LTAAAzAAAzAAAzAAAzBQfwYQUAgoehtgAAZgAAZgAAZgAAZgAAYCGUBABWYUar/+ap8yoAxgAAZgAAZgAAZgAAbqzQACCgFFbwMMwAAMwAAMwAAMwAAMwEAgAwiowIyqt9Ll+fS2wAAMwAAMwAAMwAAMwED9GUBAIaDobYABGIABGIABGIABGIABGAhkAAEVmFGo/fqrfcqAMoABGIABGIABGIABGKg3AwgoBBS9DTAAAzAAAzAAAzAAAzAAA4EMIKACM6reSpfn09sCAzAAAzAAAzAAAzAAA/VnAAGFgKK3AQZgAAZgAAZgAAZgAAZgIJABBFRgRqH266/2KQPKAAZgAAZgAAZgAAZgoN4MIKAQUPQ2wAAMwAAMwAAMwAAMwAAMBDKAgArMqHorXZ5PbwsMwAAMwAAMwAAMwAAM1J8BBBQCit4GGIABGIABGIABGIABGICBQAYQUIEZhdqvv9qnDCgDGIABGIABGIABGICBejOAgEJA0dsAAzAAAzAAAzAAAzAAAzAQyAACKjCj6q10eT69LTAAAzAAAzAAAzAAAzBQfwYQUAgoehtgAAZgAAZgAAZgAAZgAAYCGUBABWYUar/+ap8yoAxgAAZgAAZgAAZgAAbqzQACCgFFbwMMwAAMwAAMwAAMwAAMwEAgAwiowIyqt9Ll+fS2wAAMwAAMwAAMwAAMwED9GUBAIaDobYABGIABGIABGIABGIABGAhkAAEVmFGo/fqr/UYqg8MO+Kr72e2fK/yOmvUvVDi8RzDQzQwMGdDhzp98trtwv3PdkbvMCcr/EVtsW/Cve6aPmBp0T1K989zNny+8+zef98XcYSSFyzm+MzAAAzDQHAwgoLr5ox9/MRYtWuBWrz4p8Td6l5FN93He65AWN2VBa+Jvq+H9mi498fLy/z946lPOvfKJwm/sqI1qnq79p01y8xccXvgN23ZoVZ+386jhUdi77T66qmH7/Mrqbj28n9ttan837oCPfzuP36xm8dKz0pjd8+CWoOe2D+ibGobCbutojg9C1nKqp/81E05xry98ufCbseP0oHLqaG9xzx35VOGeF+Y96wYPaA+6L57ON+79TPT+qzMlfp3/8A4DMAADPZsBBFSdBdTvf//v7qOP/pj4W3Hysqb7MF/84iB39a8HJ/4mHRHWGG30SuesE78UNZ6euunz3VJGv/71LyJGJKSqmUd33nVrFPb3f3BdVcPOEs+OgX3dUWe3u6v+rTM/l/98cM3itd+8lkRexfFFLwwKeu6gLfqlhqFwBgxJ/5CMHLeZ2+fQluhXSSxuM7Jf5Hf3af2D4pelHJrB7w6bbxOJpwcPvS9THiwYMze695TxJ2W61+fNtH2+HtUBf3ji07nC8GHhpr8b5A15AwMw0KgMIKDqLKDeffetqPEaF1LNKKAueLZnC6hBg/q4/3nxk4XG019e/oQbvePG3dJ46g0CavkNHakipJYCasLsrguogUP6psa9koBae+/AknuvfKO84Drx2mI+XfJSmMBr1A9Q3nhdvv8lkQjKOhWvo72/e2buE9H92w3ZKtc7/PMffTYSUacu/nKuMPKmn/toVMIADMBAfRlAQNVZQG0xdKDbYfg20e9Xv3otElTNKKDU0775Nv2i3xkPFhuHPWEEyo4+vXLnZ7ut0dTTBdR2ozYrEREn3TjAHbCo1e07p6XwC51Kl/eDsvnWRWY1ddCPooaOQOm5g4cWw9A78L1fFUfSyo1AxQWUnj1ndVsqWyde17sFlASPn7onIZSnzJeOOz4KY9X4FbnCOOKgf40EFKNQ9W3I5GGAeygzGICBrjCAgKqzgIoX3muvvdjUAiqenu/cMyBqjPYEAfW7xz8dNZoWH/HPuRpe8TwK+V9LAXXgQVPdlVdeUvjNmBm2liQkzln8TJnfGnEi0Z3l3mr71ZS6PAIqHg+NJPlwsgoojbhpXVU8TP3v7QJq5fjlkfjJOwXPijCthWpvz7fG7qMXPh6N1nrI6ft+PbG8ksqQc8lsky/kCwzAQLMwgIBCQNX0o9+TBJRd9/D/Xvqka2/vvoqulgKqESqrI9e1RWLjuIvzLeyvVjoaQUBJeM1Y1pr4bvZmAdXW3i8yAqFRqJ2G7pCYRyEs3HbIDyIhNnOnA3OF86P1X4g6VGSZL+S5+Om+epO8Jq9hAAZqxUBuATVyx+2cLMh976r17trrrnSnrFruxu+9e9AHpL1jMzdl6kR3+hmnOi1aX7X6JLfX+N0q3rvlVoOdLNPpt/U2m0f+J03e21166fnue9+7tGBNTNPiQjNsxMht3fGLj3YXXXyuu+WWG9z69Re4lStPcLuP2yU4jLzpSYpjNUagZElN0/9u+v617swz17qp++/rFMek59X6XFcF1IDBfd2uk/u7byxvc3O/0+b2ntnihm6bzZqfpmdpKtj8M9qdRsGGbFW8XyMD+rUPrFzJ3HFxsbH0/C2fy5WfQzbvcIceNsNdcsl57rrrv+cWf/MYp3epUjkkCaiddtrerV27yt1449XuuOMWlrwT5cIbNXpE9B7598m7AwZ2j6EPlYmsMvrfNy8rTks7/pKO6Ly/PnjLYpn5tMmyXWHq3db9nIw4+PNxVwx5fyHW8BpFQF322iDXmiDSQwWU8kRTHw9a3Fpgf9ZJbQXLhuXySnmn98Pnu/Jr7JT+TgJ34mEtkTEMvS+yuDnv9I/fqUphFsqkva9T3k5f9HF8Jh/Z4obtmF5u8XLU/72G7RaJnkfn/CS1zJPujZ9bNHZhFNZl+1+UK6yDJn8tElDqVIk/o9L/YcO2KLz/qgP0236HrTOHUekZXK9ct5NH5BEMwEBWBjILqCPmznb/8R/vRtPM4oYP3n77DbfwqLmpHwGJpf/+7w8S7//jH39XaFymJUINTv+8e++9oyB8/uu//iM65699+OH7BdGQFo7O68P14IP3uD//+cNO9/twZCFv5jfK90x2JT1J8euKgJKg/dOffp+YHuWTric9s5bncguo9r7u2PPbo1EJPxXKu2c/NtBtuX35xpemQK24qTiF0N8rV+enLixOG9Oam0r58M7DfxM1li485R8r+rfhScBaa3eeMe/qvZGwsffYYyugJPjtWjkfhty7774tNQwfXjnmr7nm8or3+3C64p7+QHFtnC2XtOOCmIiNFo/ep7hW6fxn0o0pnPlI8VkSA5XiXU8BJa5lGMLnw/5Hdx6FqiSgZDZd4fgwktxznhjoZL49KS9Ovav4ztj3V+FoaqGsANo46rz+a91XUng6d9iqtkTrirpXhme0Bi7tXnt+2R7fjETPxVPOD7rH3m+Px20zJgpLps3ttdBjjULLmIzf0mDCuA0yhfPKKz/tVF+HdKiExg9/NAphAAZgoDYMZBJQP/7xXZ0qe9t488fPPZe8sDf0/gsuOCvxI2QFlBqQ5RqCEgzq7U8CR41Z2yD18U5yzz33jMQwFG5X05MUt7wCKjQu1157RWp6kuLT1XO2ARa6BkoWzc5+vHwDUA0vrTHR6FRSHDWqVKkRqcagwtGvkoDq6ChtKE3ZO3y9w9AtBzkJpCS+7Dkxq9GppPRYXtM6IHxYL7/y08QwfLjl3pvuMmOeVUAlWeELFVDnPVUUJM0goDRC47nUtgC+3LxbSUDZd86Hk+Tq/dnjwM7vjxVQSfelnTv2gs5TLzXy992HKr/LMl2fFBefZu/+4OAbItFz1K7zOuWN9xfiyhqfN0Yhd/jmw3KF97vHiusiL/32P2QKI0lA7TJmx0xhhKQVP7VpQJGv5CsM9F4GggXUunWrSxqAH3zwXmEa0pw5M92sWQc5CQ3fK54koGbNPrjk/nfeecutWXNy4d6zzj7NafTJNwDVwEvqhbMCyvt94YWn3Ukrlrpjjp3vHnvswSgMXde0viS4v/WtRSX+7rvvTnfIjAOcPlwacdLUwjfeeLXgJ01AVSM9SXHLI6AUX58fctVYP/nkZYVpkstOWBylxfvR9MmkZ9finG3MhQqoeaeVjjytvHlAYeqerKMdcWppT/YFz3VuYCodLcs+cgAAFf9JREFUsmJmG3oKY/yMlsIUJjtdzPupJKAm7rFB1MusHucseaUpdj7v5T7//JOFqXtzjzy0MP3VCpr33ns7MWwroHxYGtHSiLCmAcYbYppSmxZHjWAtXXZ89HvxxWei+HWXgNplYv9oLyPtgbTqttJRD7svko6TGtc9VUBp2pxG3DybSr8ty1ABJfGld0nvnUbVRu3d3x28pNWtf6UYdkGYxqYJWgGl90udFMuvL06xVLwufXmQU/5PP64o9jSSZOOp4/gIsMLRe7jjnpu5aUeXxkVp1l5g8TDsf78JrgSPpvPZa3mOtYeUF1EHjZyWK7wnb/x8VDfoOEs84u+t3m0EVHkGsuQvfslLGICBWjEQJKC09ug///MPUSPr9ddfcupVT4rUd9aucjfffH2na15c6QPx29++6eLrlHYeNbxERN3/wI86hREXUPfcc3snP0899UgUzzfffL3TdcX54Ufuj/xIdCWlQ+f2njAudV1XNdKT9NysAkrlYMtG0xKTwn3yyYejNKsxnuSnFueyCiiNPlnrZYvXdx5FtGam1ZiLNzA1dc+OLi25vHMYWrvhG6hyKwmoeTOKJouzrHVQ+dhppvfff3envJcI8qJIrkRvvCziAipJ2FshpP3F4mGk/bdTC7tLQMXjcsx5xfJYcGbnkYy4f/3vqQJKadOaP8+nRtBs+isJqMlzW9y4AzqPLPkwNNXOvmNaH+ivybUCSqNh/toVvyiO2M48sWhmXWJKcdUokvcrd9SE4hRLXVe87HUd632XqXif1kpl78WO3BFbVF47GH9e/P+th3w/ElDzx+TboPrOS4prI7U3VPwZ5f4joGjcleODa/ABA43LQJCAuvrqy6IGnnrLZXghS6FqbYdtIKatxZERCO9P05Tiz7ACStetIQnvVyNiPow//OGdTmHI309/+lTkp5yA8mHG3WqlJx6u/mcVULZslN40IwDKKzv1KynvkuLT1XNZBZSdvqQGmfbWSYqD3TvntB+XGg1Rj7tvkCkMazTChyXDArrm/VUSUN8+/p+iXub/eu5TiXHyYVvXjg7q3dHaO3vdH6tTwnP7i1+83MmPFVAarfX3WXffSeOjMBTW/tMmJfqz9+gYAVVaQdd7DZTKRCMxVrBYQVRJQMXLN+m/3Yx3YUywWgG1057FtUl2SqydOqv3z79H1vT6uvuK5zXylBQPnbMdIuX23RoyoCMSOxJQmw+svG4x7Zn+/JXT1kdhnrDHktQ4ev9J7lWn/X1UN7z7yKczhYGAKn33kvKXc+QRDMBAIzIQJKCeffbxqGH20EP3ZfpAKNHz5h0W3a/RkrSMGLbt0MifGoD6b/1aAaURIHvNH0vc+YZokgiTvzvuuLnEj6Yg+vtD3GqlJ+lZWQWUpoP59P7qzdfdkiXHRj9NVdTPT9d6//3fRH6PKmPoIyleec9lFVALzyqORKy5K72BJAtevtGmBew2fprm56/p+faaPV59e3HaWCUBde6KL0WNpA+eChdQt952U5Tn5dYmyfKjL8ck4W8FlAyo2HTYYxk+8eEoTHst7RgBVfpxagQBpbKyHGsdkS+/TAKqvW/BWIREijoW/M9OrVtyRam4sQJq2E5FAXXa/UVBNGL34vlv31F8j6yFTDsN8aiz292EWS3F3+wWN2F2SzSN07+vcq0I82mWO2zw0EjsSEDJpLm9nuf4wv3OjcJcs/fKXOGdv/Ifc9UNiu/8BYc7TWG3v/jsjDzp4p7Sd5r8ID9gAAaqzUCQgNKUO98oO+ec0zN/ZM4wa3TeeefXZe+3oyRal2QTbAWUpqTZa/bYx1U9/va8P9Zmod6Pd2VZUNP/NDVqn4l7Jt7n769Wenx41s0qoJSfPg1Z3CuuuLhsGm2cunKcVUDZhl25/YDUM+4bXd/7VenUoWVXF9drxBuHNi2LLiqKtUoCasXRX4kaSX9+Ptxc8TPPPBaVT9KUUx+fAw6YHPlLEv5WQMnkvr8v7r7+859F4WiLgfj1pP8IqNIPS6MIKJkGF9uec01ZVPmFCCitd1IHhL+3nKvRKMuFFVBWENnz1vz4yT8oPmf7XT4WVhJB5Z5Z7pry38bHH3e0t0RiRwJqq0FDEv15/yHuNQdcEYX5rXHH5wrvuu8WR6B++9Df5AojJK74KX1PyQ/yAwZgoJ4MBAkou8amnInytIRofyXfuNdUpTR/Om9NpMcXwlsBVa4X3j8rTUDpOdq7yvtLcjUKoMX5SXGtVnqSws4qoOz6mqR0pJ27vEEFlDU5LdPHSXmkc1rHYRthdh8aO6VI+9ekhWGNVVQSUHMO/GokoP43w34vVvhoimpaXHYYvk0Jj/EpljYc7fGVFo4dLU5bDxe/FwFV+hFqFAGlcjr6nKLI96OplQTUYacUR2DtO5J2HJ9eZ4WS3X/LjtjaLQT07viwd9j1Y/GjESp/LqubJqCUH68seDESPKO2TDf7H2c87f/tM26Jwps7+tDU9yrtfp2/57LiGqhX78y2BqpcuFwrfS/JD/IDBmCgkRjILKCOPia76VgZlfANefWQl8sAK6BkSc76raaAUrgHHjS1YLnPWgD08fRuXMTpvmqlx6bNH2cVUFbcanRQm+iG/NLWSvl4VMvNOgJlBZQs6aXFY4th6QLK9rzH13fY8CSufOOukoDaY8yGkYDSni8DBvRJjZt9hhU+5UaE7NRTsSfDLWnhxN8L68+OeMm0vb2WdoyAKv0oNZKAkhlwu1ZPwqScgJJ1Q8+0XFni8xvobjtqs2iDXDtVthYCavjYUgGlkaltduxX8acNfNM41fmnjng0Ejz7bj++rN9y4fhr2oxXo1n6TRs+OVd42lTb7wP1yLV/mysMHx/c0neR/CA/YAAGGpWBIAFl97A597zvZv5A2IX0Ml9eLjPsFL6DD96/xG+1BZSNh0YA1q5d5ewUKDVkkxbsVys99vn+OKuAstMr0/bP8mGHutonSwLL/nQu9H7rL6uAslP4jr+kdGqRDXfn8cUGWnwKn+7zjUg1Nu199ljT+7y/SgJK92nkyTeUNCJlw0o7fvrpR6POg3KjptMPnBL5qzSFL808v+IgAxRe/IeOMnZFQFlG/HFaXpQ7n8cK3457FBkot5GutxKnsm6GfaDi+WTN7p9y64CyAspOX9VeamnriZZeVWS/FgJKptj9uyU3dKPceNrj/6864LJI8OSdcufDjBulyDsl8E/PfCqqF05f+uWgesHHAZfGIQzAAAw0JwNBAsqaBn/88Z9k/kBovxvfqNOUs7TGeLwXPm6xrJYCygKsUScfX7nb77B1SZqrlR77TH9sTVGfeebakud6P9a1U7buuuvWiv7tvWnHmvpo06/jM89alytsO+3nwMVFk8hpz9aIkW94+SlLSX6nLizuPxPfbFQ97j6MuAloG5Yd7QoRUL+67zNRQ0nrHmxYace33npjlJcSx2n+tCeaz3MZgoj7syNZSSb+vX9rRGL58jCrYnkFlPZM83G2bp59bPIIKE0X8+UsgwU+D+KuHcEJEVBq7IeEG39O/L81pV9uZMValJSlu3g4mi7n4yPXTlGNG1CRkPR+ZTAiHpb/bze3rYWA0nOsEYk9D06Pi49TiHvMrvMjAaX1SyH3pPmZvP2EKCyNRKX5K3d+yJA+UZ2gzpWdRmycKRztJ3jNNZdHP1lVjX9vyj2fa83Z8KLcKDcYaH4GggSUerK70kDaaaftS+5P2udGMFmBlNQLb6+X6833cS23BqoSvHYkbL/9JpR8FKuVnqQ43H33bVFeqWGb5Meeu/LKSyL/Eqdp+3PZeyodV1NALbqwKIiOPb/y/j7aXNM3AOVqClNSfE9/oGgRTOaSrZ/4NKakNRXbjCxtlIYIqGvPKC4W/8U9nyl5pn2+PdaopudRblrjyG/cLD9J01ytgPrTn36f2Akxdf99S55VyRiKj2deAXX44d8oeZ5PZ3cJKJmi96xIJCVtwrrnQaVT2kIElB09UbgDhuSr6M99qsio4uHzO+5WElDyL5Hj02rduIDSxrf+epposSN38lsrAWVHn894sPQdjedB6P/RW46MRI821Q29L8nfij2XRWGdMyn7zAqFefTsf4kEVBbjMj4+dj2tf39COz58GLj53k/yjXyDARjoCgNBAmrI5h1OjTZfwasxl9YQ1KjJTTdd0+nDZqfGvffe2532w9l93C4lG8ImWSyrloCSFbPjFx/dKY4+Iw89bEaUVqU5PhImf9VIj3+edTXS4/NZ65sq7bkVLxuNFg4ekixU5FdWBn/4w++npl1xqaaAOmhxURBpXxutXbLpjR+rUWz3v4k37uR//MyiCXM1APU/Ho7ds+aCZweVCDE1tG0PvMIIEVCjd9w4aiz95eVPuC0237TTc+PxUJ7bdWpPPPFQp3vEoi9zuUlsWgElPxLO9lka1bV7Sb311i9Lrlu/8eNmFVBKh7VSZzd31TVt0qoRSC8o5IYIKN1rR0+06XI8z0L+r7y5aFxBAkLCLOm+EAFlR8VseuICatVtxWcmMa090aywU1jxd6waRiSUTmspU885eEn6CPTQ7fo5jT6rAyUpj+y5hw67PxI+e287rqJ/e689fmTOg1E4E7fbK1c4z/7g81GdcO/lX8gcBgIq+Z2w5cQxeQQDMNCIDAQJKEXc7lOjBpwE1Y03Xl2wVKeNcbVA3jfynnvuiU4fEq1nso1ETTXSmh3tU6TGoG1kqgGvNUnxDKuWgPrlL18pxOXDD98vbCK65tSVTtORtLZJcbejT2n7TVUjPfH06b/2ALF5oWMZBtC0Lf2uv+GqTvkSn3IoQxyy+HbccQsL+4xceOHZTlMvfbpUTknP9ueqKaDUe28FkY61zknrOvRLspJ3+LeLU/DU8FIDU1P2NCVJo1i2AZk2RW+vQ0pFlqZTyVyznqlGpw1Dx0mNTZ8f1rXT+M468Utl89HfZzc71jsgoSPmTlqxtGQTW11LM/Pv3y37Dj388I+dDEp8Z+0qpz3A7DWVvX9+JbeZBZQ1oa1yPPaC9sLeQprGqamd8XIOFVCHryllUIJba+Y8t6MmpI8o+fyW2XH7fMVHa5R8GFMWfCwWQgSUwrTiyIcbF1AzlpXGWx0J3ojErBVtJcLQh1ErAaU4LzNrrfQ8CUnFcfdp/Qt7QslQjDX6siC2qa/PS+sebabxnTv5zGDObRi7brVzJJ7yTt+TIZn/e/kTkYAaO2qjzHFBQNEwtFxyDA8w0DwMBAsoFWpSZW8bbf44SUDpfrupqPeb5GqfpSSIqi2gkp5tz2lK3Pi9d0+MSzXSk5RGnYtP+7JxkuhLus9aBrT+k467U0AprvFpeb7hJjdp7YpGoewUPevfHkuMlWvIfmN5aWPS3qupWd+6sjgtKlRAHX/4P0cNptA9XzQKZafoJZWJzkksx/c+82VtBZQdDU4K69FHH0hkxIcVd5tZQMWno9ky1vGFzw9yF71QFFKhAkqjlBq5jIfn/4es51M+W8b8vd6V+JOfUAFlrQP6MOICqrW9b6cRJu/Xu2JfvPv/tRRQ2l5gzZ3FZ/lnprkhAkrGH7w585fmP++0P1Sc6Ur/1+2zJhJQx+12VOb7Ff4px/5TVBf8+oGwKb3xeKlTLP4OZ+n8iIfH/+ZpfFFWlBUMNDcDmQSUClvWwt59961Olb7/CGhqm6bApYGxZMmxJSMs/j652ntJ4afda9f73HHHzan+fJgaSUkKS+a+rfU679+6EoF7jd8t8X4bZlfSY8OJH8+adZDT6JcdjVL8NLoU9+v/K+9k5dCmwx5LEGo0a/6Cw1PDUFjVHIHycdtl3/6F3mc7GqVGlCykeT9xd+532kpMONtGlxbSay+o+D3x/xNmtTgZi/BTveTq3vEzWpx6v32Y5Sz+xcP88Kmi1a2DJn+tYhz8/eoASMpblZGs5yWNuvp7rQA75tj57uWXn+9Uzgq7nKl0H1bczSugxKjlyx93dQ2Uyj0ex3L/VZa+fH15yj3niYFOU8PsNL5QAaXnyYKdRjwlwCQ6bNgaES0XJ3tt+nGtBVETj6O3EGmnzCUZkbBhab2fjYcEor2uY70X1pql9a/3bcyk/oVRKX9eIs+GYUe6NA3SX7NTEu27Z0eZhu2UbK1zv3ktzhrV8M/27vpXBjm9gzuMSb7fx8G7p05YFQkgGZbw50PcLQYOjATYC/OedRJkIffF/fzu8U9HAmruwf+aK4z4t/SDD95LXN8Yfzb/i1ySF+QFDMBAPRjILKB8JDXVTA0oTUWSIFGjTsYV/PVKrhpZWiy7/rILC1PNyjUeK4WV97oMLhwxd7aTBbQrrrjYaeRLFvYqrTtKel4jpMfHSyMempKostGap6XLjndTpk5szg9ze1+nPWWmHdPqZp7Q5nbdr3/uRf1bx/aY0VQq34BT2D7/KrkLZv5r1HB688fZep61VmnS5L3dunWrnaZWzpkzszBts9Izk65rs10ZZNGavhkzp+cuX00F9OJH0w2TntXo5zRVdLep/QucTDysxWnko9HjXOv4ifcJs1vc7BVtBdduilvrZ6eFL6Mwexz4cTlpTZQMXaSJrrQwdF6iR6NP2r9JxiQGdISPQp0y/qRIfC0Yc0QuThYfURyJDjUoE0+P3l//3nlXsw/i/vhP4xAGYAAGGo+B3AKKwmy8wqRMspWJnaKVZrEsLU/tWqgZU8JHodLCq+d5jXT6Bly5TXrrGUeenY3t3pBfdi3UorFha/6GDhoUjT7JiERbez6h/YcniqNPe+66YS7RozWQ/r2TqxkYvaHcSCPvMgzAQE9gAAHVBsg9AeSkNBywqNWl7b8zZX7ROuCVbwzOPGKxx5gN3VWn/X3hN3Nq8wqouDGUuMn+pHzlHHVGIzAg8bNgzFx31K7z3LThk4PEx+YDBxT86x4ZksibjvNO/sfCu7984Vdyh2FHfiWg6LzgvcrLI/fBDgx0PwMIKARU7gZAo7+wft2KLH/JFLVEk6YN2bUcmsInYxONnpZqxG+PPXd1arT536uvvlCyJuvtt9/oFflQjbwkjO7/WPW0PLfrcLW1R09LH+nhHYEBGOjJDCCgEFA99sPtBZRf55Tkrr59QOr+PD3txddaPztlyB7LxL3WUfW0NJMePuCNyoDWQ2rPPv103KjxJF68QzAAAzDQmQEEFAKqx364F13U7i54rrMpagkrWS+bfGT4wvOeUHmsXn1SJwEls/gvvviM22330T2Wg55QdqSh88eLPCFPYAAGYAAG6sUAAgoB1eMbzm0dfZ0skmnPqDwWv+r1cvJcPgwwAAMwAAMwAAMw0HgMIKAQUD1eQFHxNF7FQ5lQJjAAAzAAAzAAA83KAAIKAYWAggEYgAEYgAEYgAEYgAEYCGQAARWYUc2qkIk3vTswAAMwAAMwAAMwAAMwUD0GEFAIKHobYAAGYAAGYAAGYAAGYAAGAhlAQAVmFKq9eqqdvCQvYQAGYAAGYAAGYAAGmpUBBBQCit4GGIABGIABGIABGIABGICBQAYQUIEZ1awKmXjTuwMDMAADMAADMAADMAAD1WPg/wPmiUU/eL87HgAAAABJRU5ErkJggg==;" vertex="1" parent="1">
                    <mxGeometry x="96" y="20" width="636" height="300" as="geometry"/>
                </mxCell>
                <mxCell id="4" value="What is this?" style="text;html=1;strokeColor=#666666;fillColor=#f5f5f5;align=center;verticalAlign=middle;whiteSpace=wrap;rounded=0;fontColor=#333333;fontStyle=1" vertex="1" parent="1">
                    <mxGeometry x="160" y="360" width="240" height="40" as="geometry"/>
                </mxCell>
                <mxCell id="5" value="&lt;span&gt;this is a special runtime time value, assigned based on it's invokation&lt;/span&gt;" style="rounded=0;whiteSpace=wrap;html=1;align=left;spacingLeft=8;" vertex="1" parent="1">
                    <mxGeometry x="160" y="400" width="400" height="40" as="geometry"/>
                </mxCell>
                <mxCell id="6" value="PRO Tip: Always value of &lt;b&gt;this&lt;/b&gt; will be object, on the left to &lt;b&gt;&quot;.&quot;&lt;/b&gt; of the method" style="rounded=0;whiteSpace=wrap;html=1;fillColor=#d5e8d4;strokeColor=#82b366;" vertex="1" parent="1">
                    <mxGeometry x="160" y="520" width="560" height="40" as="geometry"/>
                </mxCell>
            </root>
        </mxGraphModel>
    </diagram>
</mxfile>